<?xml version="1.0" encoding="utf-8"?>
<!-- Generator: Adobe Illustrator 19.2.1, SVG Export Plug-In . SVG Version: 6.00 Build 0)  -->
<svg version="1.1" id="Layer_1" xmlns="http://www.w3.org/2000/svg" xmlns:xlink="http://www.w3.org/1999/xlink" x="0px" y="0px"
	 viewBox="0 0 162 162" style="enable-background:new 0 0 162 162;" xml:space="preserve">
<style type="text/css">
	.st0{fill:#6158AC;}
	.st1{fill:#2D254F;}
	.st2{fill:#6661A8;}
	.st3{display:none;}
	.st4{fill:url(#SVGID_1_);}
	.st5{fill:#BCBEC0;}
	.st6{fill:#FFFAFC;}
	.st7{fill:#A49BC6;}
	.st8{fill:#849899;}
	.st9{fill:#A498A4;}
	.st10{fill:url(#SVGID_2_);}
	.st11{fill:#306F37;}
</style>
<path class="st0" d="M81,0c44.6,0,81,36.4,81,81c0,44.6-36.4,81-81,81S0,125.6,0,81C0,36.4,36.4,0,81,0L81,0z"/>
<path class="st1" d="M81,5.6c41.5,0,75.4,33.9,75.4,75.4c0,41.5-33.9,75.4-75.4,75.4c-41.5,0-75.4-33.9-75.4-75.4
	C5.6,39.5,39.5,5.6,81,5.6L81,5.6z"/>
<path class="st1" d="M81,6c41.3,0,75,33.7,75,75c0,41.3-33.7,75-75,75S6,122.3,6,81C6,39.7,39.7,6,81,6L81,6z"/>
<path class="st2" d="M81,28c29.2,0,53,23.8,53,53s-23.8,53-53,53s-53-23.8-53-53S51.8,28,81,28L81,28z M81,23.7
	c31.5,0,57.3,25.7,57.3,57.2c0,31.5-25.7,57.3-57.3,57.3c-31.5,0-57.3-25.7-57.3-57.3C23.7,49.5,49.5,23.7,81,23.7L81,23.7z"/>
<g id="Grid" class="st3">
</g>
<g id="Layer_1_1_">
</g>
<g id="Desktop">
</g>
<g id="Guides">
</g>
<radialGradient id="SVGID_1_" cx="-4592.8188" cy="3464.6768" r="11.3697" gradientTransform="matrix(4.6645 0 0 -4.6645 21504.1992 16241.9785)" gradientUnits="userSpaceOnUse">
	<stop  offset="0" style="stop-color:#938EAE"/>
	<stop  offset="0.23" style="stop-color:#908BAC"/>
	<stop  offset="0.62" style="stop-color:#645E89"/>
	<stop  offset="1" style="stop-color:#47416A"/>
</radialGradient>
<circle class="st4" cx="81" cy="81" r="53"/>
<path class="st5" d="M22.9,40.9l5,4.8L27,47.4l-4.1-1.1l3.1,3L25,50.8l-6.7-1.9l0.9-1.5l4.4,1.4l-3.3-3.2l0.8-1.4l4.4,1.3l-3.4-3.1
	L22.9,40.9L22.9,40.9z M34.7,37.3l-1.1,1.3l-2.2-2l-1.5,1.7l2.2,2L31,41.6l-5.1-4.4l1.1-1.3l1.9,1.6l1.5-1.7l-1.9-1.6l1.1-1.3
	L34.7,37.3L34.7,37.3z M40,28c0.7,0.8,1,1.7,1,2.5c0,0.8-0.5,1.6-1.2,2.2c-0.8,0.7-1.6,0.9-2.4,0.8c-0.8-0.1-1.6-0.6-2.3-1.4
	c-0.7-0.8-1-1.7-1-2.5c0-0.9,0.4-1.6,1.2-2.3c0.8-0.6,1.6-0.9,2.4-0.8C38.5,26.7,39.3,27.2,40,28L40,28z M38.6,29.1
	c-0.3-0.3-0.5-0.5-0.8-0.7c-0.2-0.2-0.5-0.3-0.7-0.3c-0.2,0-0.4,0-0.6,0c-0.2,0.1-0.4,0.1-0.5,0.3c-0.2,0.1-0.3,0.3-0.4,0.4
	c-0.1,0.2-0.1,0.4-0.1,0.6c0,0.2,0.1,0.5,0.2,0.7c0.1,0.3,0.3,0.6,0.6,0.9c0.3,0.3,0.5,0.6,0.8,0.7c0.2,0.2,0.5,0.3,0.7,0.3
	c0.2,0,0.4,0,0.6,0c0.2-0.1,0.4-0.1,0.5-0.3c0.2-0.1,0.3-0.3,0.4-0.5c0.1-0.2,0.1-0.4,0.1-0.6c0-0.2-0.1-0.5-0.2-0.7
	C39.1,29.7,38.9,29.4,38.6,29.1L38.6,29.1z M54.2,15.6l1.5,6.8l-1.6,0.8l-2.8-3.2l1,4.2L50.6,25L46,19.7l1.6-0.8l2.9,3.6l-1-4.5
	l1.5-0.8l3,3.5l-1.2-4.5L54.2,15.6L54.2,15.6z M59.8,20.6l0.5-7.1l1.8-0.5l3.9,5.9l-1.7,0.4l-0.8-1.2l-2,0.5l-0.1,1.4L59.8,20.6
	L59.8,20.6z M62.8,17.1l-1.2-2l-0.1,2.3L62.8,17.1L62.8,17.1z M74.8,17.4l-1.6,0.2l-3.1-4.3l0.6,4.6l-1.5,0.2l-0.8-6.7l2.1-0.3
	l2.6,3.6L72.5,11l1.5-0.2L74.8,17.4L74.8,17.4z M80,17.1l-0.1-5.4l-2,0l0-1.3l5.7-0.1l0,1.3l-2,0l0.1,5.4L80,17.1L80,17.1z M89,17.7
	c-0.5-0.1-1-0.2-1.3-0.3c-0.4-0.1-0.7-0.3-1-0.5l0.2-1.6l0.2,0c0.3,0.3,0.6,0.6,1,0.8c0.4,0.2,0.8,0.3,1.1,0.4c0.1,0,0.2,0,0.4,0
	c0.2,0,0.3,0,0.4-0.1c0.1,0,0.2-0.1,0.3-0.2c0.1-0.1,0.1-0.2,0.2-0.3c0-0.2,0-0.3-0.1-0.4c-0.1-0.1-0.3-0.2-0.4-0.3
	c-0.2-0.1-0.5-0.2-0.7-0.3s-0.5-0.2-0.7-0.3c-0.5-0.2-0.8-0.5-1-0.9c-0.2-0.3-0.3-0.7-0.2-1.2c0.1-0.6,0.4-1.1,1-1.4
	c0.6-0.3,1.3-0.4,2.1-0.3c0.4,0,0.8,0.1,1.2,0.3c0.4,0.1,0.7,0.3,1,0.5L92.2,13l-0.1,0c-0.2-0.2-0.5-0.5-0.8-0.6
	c-0.3-0.2-0.7-0.3-1.1-0.4c-0.1,0-0.3,0-0.4,0c-0.1,0-0.2,0-0.4,0.1c-0.1,0-0.2,0.1-0.3,0.2c-0.1,0.1-0.1,0.2-0.2,0.3
	c0,0.2,0,0.3,0.1,0.4c0.1,0.1,0.3,0.2,0.7,0.4c0.2,0.1,0.4,0.2,0.6,0.2s0.4,0.2,0.6,0.3c0.4,0.2,0.8,0.5,0.9,0.8
	c0.2,0.3,0.3,0.7,0.2,1.2c-0.1,0.7-0.4,1.2-1,1.5C90.6,17.7,89.9,17.8,89,17.7L89,17.7z M101.8,20.4l1.7-5.2l-1.9-0.6l0.4-1.2
	l5.4,1.7l-0.4,1.2l-1.9-0.6l-1.7,5.2L101.8,20.4L101.8,20.4z M115.2,22.7c-0.5,1-1.1,1.6-1.9,1.9c-0.8,0.3-1.6,0.2-2.5-0.3
	c-0.9-0.5-1.5-1.1-1.7-1.9c-0.2-0.8-0.1-1.7,0.4-2.7c0.5-1,1.1-1.6,1.9-1.9c0.8-0.3,1.6-0.2,2.6,0.2c0.9,0.5,1.5,1.1,1.7,1.9
	C115.8,20.8,115.7,21.7,115.2,22.7L115.2,22.7z M113.6,21.9c0.2-0.4,0.3-0.7,0.4-1c0.1-0.3,0.1-0.5,0-0.8c0-0.2-0.1-0.4-0.3-0.6
	c-0.1-0.2-0.3-0.3-0.4-0.4c-0.2-0.1-0.4-0.1-0.6-0.2c-0.2,0-0.4,0-0.6,0.1c-0.2,0.1-0.4,0.2-0.6,0.5c-0.2,0.2-0.4,0.5-0.6,0.9
	c-0.2,0.4-0.3,0.7-0.4,1c-0.1,0.3-0.1,0.5,0,0.8c0,0.2,0.1,0.4,0.3,0.6c0.1,0.2,0.3,0.3,0.5,0.4c0.2,0.1,0.4,0.1,0.6,0.1
	c0.2,0,0.4,0,0.6-0.1c0.2-0.1,0.4-0.3,0.6-0.5C113.2,22.5,113.4,22.2,113.6,21.9L113.6,21.9z M126.5,32.6c-0.2,0.3-0.5,0.4-0.7,0.6
	c-0.3,0.1-0.5,0.2-0.8,0.2c-0.3,0-0.6-0.1-0.9-0.2c-0.3-0.1-0.6-0.3-1-0.6l-2.1-1.7l4.3-5.1l1.8,1.5c0.4,0.3,0.6,0.6,0.8,0.8
	c0.2,0.2,0.3,0.4,0.4,0.6c0.1,0.3,0.1,0.5,0.1,0.7c0,0.2-0.2,0.5-0.3,0.7c-0.2,0.3-0.5,0.4-0.8,0.5c-0.3,0.1-0.6,0.1-0.9,0l0,0
	c0.3,0.3,0.4,0.7,0.4,1C126.9,31.9,126.8,32.3,126.5,32.6L126.5,32.6z M126.6,29.1c0.1-0.1,0.1-0.2,0.1-0.3c0-0.1,0-0.2,0-0.4
	c-0.1-0.1-0.1-0.2-0.3-0.3c-0.1-0.1-0.3-0.2-0.5-0.4l-0.1-0.1l-0.9,1.1l0.2,0.1c0.2,0.2,0.4,0.3,0.5,0.4c0.1,0.1,0.2,0.1,0.3,0.2
	c0.1,0,0.3,0,0.4,0C126.4,29.3,126.5,29.3,126.6,29.1L126.6,29.1z M125.2,31.5c0.1-0.2,0.2-0.3,0.2-0.5c0-0.1,0-0.3-0.1-0.4
	c-0.1-0.1-0.1-0.2-0.3-0.3c-0.1-0.1-0.3-0.3-0.5-0.5l-0.2-0.2l-1.1,1.3l0.1,0.1c0.3,0.3,0.6,0.5,0.7,0.6s0.3,0.2,0.5,0.2
	c0.2,0,0.3,0,0.4,0C125,31.7,125.1,31.6,125.2,31.5L125.2,31.5z M127.7,36.7l5.1-4.4l3,3.4l-1,0.8l-1.9-2.2l-0.9,0.8l1.7,2l-1,0.8
	l-1.7-2l-1.3,1.1l1.9,2.2l-1,0.8L127.7,36.7L127.7,36.7z M135.7,46.8l6.9-1.4l0.9,1.6l-4.7,5.3l-0.9-1.5l1-1.1L138,48l-1.4,0.3
	L135.7,46.8L135.7,46.8z M139.9,48.9l1.6-1.7l-2.3,0.5L139.9,48.9L139.9,48.9z"/>
<path class="st6" d="M22.5,40.7l5,4.8l-0.9,1.6L22.4,46l3.1,3l-0.9,1.6l-6.7-1.9l0.9-1.5l4.4,1.4l-3.3-3.2l0.8-1.4l4.4,1.3l-3.4-3.1
	L22.5,40.7L22.5,40.7z M34.2,37.1l-1.1,1.3l-2.2-2l-1.5,1.7l2.2,2l-1.1,1.3L25.4,37l1.1-1.3l1.9,1.6l1.5-1.7L28,34l1.1-1.3
	L34.2,37.1L34.2,37.1z M39.5,27.7c0.7,0.8,1,1.7,1,2.5c0,0.8-0.5,1.6-1.2,2.2c-0.8,0.7-1.6,0.9-2.4,0.8s-1.6-0.6-2.3-1.4
	c-0.7-0.8-1-1.7-1-2.5c0-0.9,0.4-1.6,1.2-2.3c0.8-0.6,1.6-0.9,2.4-0.8C38,26.4,38.8,26.9,39.5,27.7L39.5,27.7z M38.1,28.9
	c-0.3-0.3-0.5-0.5-0.8-0.7c-0.2-0.2-0.5-0.3-0.7-0.3c-0.2,0-0.4,0-0.6,0c-0.2,0.1-0.4,0.1-0.5,0.3c-0.2,0.1-0.3,0.3-0.4,0.4
	c-0.1,0.2-0.1,0.4-0.1,0.6c0,0.2,0.1,0.5,0.2,0.7c0.1,0.3,0.3,0.6,0.6,0.9c0.3,0.3,0.5,0.6,0.8,0.7c0.2,0.2,0.5,0.3,0.7,0.3
	c0.2,0,0.4,0,0.6,0c0.2-0.1,0.4-0.1,0.5-0.3c0.2-0.1,0.3-0.3,0.4-0.5c0.1-0.2,0.1-0.4,0.1-0.6c0-0.2-0.1-0.5-0.2-0.7
	C38.6,29.5,38.4,29.2,38.1,28.9L38.1,28.9z M53.8,15.3l1.5,6.8l-1.6,0.8l-2.8-3.2l1,4.2l-1.7,0.8l-4.6-5.2l1.6-0.8l2.9,3.6l-1-4.5
	l1.5-0.8l3,3.5l-1.2-4.5L53.8,15.3L53.8,15.3z M59.3,20.4l0.5-7.1l1.8-0.5l3.9,5.9l-1.7,0.4L63,18l-2,0.5l-0.1,1.4L59.3,20.4
	L59.3,20.4z M62.4,16.9l-1.2-2L61,17.2L62.4,16.9L62.4,16.9z M74.3,17.2l-1.6,0.2l-3.1-4.3l0.6,4.6l-1.5,0.2l-0.8-6.7l2.1-0.3
	l2.6,3.6L72,10.7l1.5-0.2L74.3,17.2L74.3,17.2z M79.5,16.8l-0.1-5.4l-2,0l0-1.3l5.7-0.1l0,1.3l-2,0l0.1,5.4L79.5,16.8L79.5,16.8z
	 M88.5,17.4c-0.5-0.1-1-0.2-1.3-0.3c-0.4-0.1-0.7-0.3-1-0.5l0.2-1.6l0.2,0c0.3,0.3,0.6,0.6,1,0.8c0.4,0.2,0.8,0.3,1.1,0.4
	c0.1,0,0.2,0,0.4,0c0.2,0,0.3,0,0.4-0.1c0.1,0,0.2-0.1,0.3-0.2c0.1-0.1,0.1-0.2,0.2-0.3c0-0.2,0-0.3-0.1-0.4
	c-0.1-0.1-0.3-0.2-0.4-0.3c-0.2-0.1-0.5-0.2-0.7-0.3c-0.3-0.1-0.5-0.2-0.7-0.3c-0.5-0.2-0.8-0.5-1-0.9c-0.2-0.3-0.3-0.7-0.2-1.2
	c0.1-0.6,0.4-1.1,1-1.4c0.6-0.3,1.3-0.4,2.1-0.3c0.4,0,0.8,0.1,1.2,0.3c0.4,0.1,0.7,0.3,1,0.5l-0.2,1.5l-0.1,0
	c-0.2-0.2-0.5-0.5-0.8-0.6c-0.3-0.2-0.7-0.3-1.1-0.4c-0.1,0-0.3,0-0.4,0c-0.1,0-0.2,0-0.4,0.1c-0.1,0-0.2,0.1-0.3,0.2
	c-0.1,0.1-0.1,0.2-0.2,0.3c0,0.2,0,0.3,0.1,0.4c0.1,0.1,0.3,0.2,0.7,0.4c0.2,0.1,0.4,0.2,0.6,0.2c0.2,0.1,0.4,0.2,0.6,0.3
	c0.4,0.2,0.8,0.5,0.9,0.8c0.2,0.3,0.3,0.7,0.2,1.2c-0.1,0.7-0.4,1.2-1,1.5C90.1,17.4,89.4,17.5,88.5,17.4L88.5,17.4z M101.3,20.2
	L103,15l-1.9-0.6l0.4-1.2l5.4,1.7l-0.4,1.2l-1.9-0.6l-1.7,5.2L101.3,20.2L101.3,20.2z M114.7,22.4c-0.5,1-1.1,1.6-1.9,1.9
	s-1.6,0.2-2.6-0.3c-0.9-0.5-1.5-1.1-1.7-1.9c-0.2-0.8-0.1-1.7,0.4-2.7c0.5-1,1.1-1.6,1.9-1.9c0.8-0.3,1.6-0.2,2.6,0.2
	c0.9,0.5,1.5,1.1,1.7,1.9C115.3,20.6,115.2,21.5,114.7,22.4L114.7,22.4z M113.1,21.6c0.2-0.4,0.3-0.7,0.4-1c0.1-0.3,0.1-0.5,0-0.8
	c0-0.2-0.1-0.4-0.3-0.6c-0.1-0.2-0.3-0.3-0.4-0.4c-0.2-0.1-0.4-0.1-0.6-0.2c-0.2,0-0.4,0-0.6,0.1c-0.2,0.1-0.4,0.2-0.6,0.5
	s-0.4,0.5-0.6,0.9c-0.2,0.4-0.3,0.7-0.4,1c-0.1,0.3-0.1,0.5,0,0.8c0,0.2,0.1,0.4,0.3,0.6c0.1,0.2,0.3,0.3,0.5,0.4
	c0.2,0.1,0.4,0.1,0.6,0.1c0.2,0,0.4,0,0.6-0.1c0.2-0.1,0.4-0.3,0.6-0.5C112.7,22.3,112.9,22,113.1,21.6L113.1,21.6z M126,32.4
	c-0.2,0.3-0.5,0.4-0.7,0.6c-0.3,0.1-0.5,0.2-0.8,0.2c-0.3,0-0.6-0.1-0.9-0.2c-0.3-0.1-0.6-0.3-1-0.6l-2.1-1.7l4.3-5.1l1.8,1.5
	c0.4,0.3,0.7,0.6,0.8,0.8c0.2,0.2,0.3,0.4,0.4,0.6c0.1,0.3,0.1,0.5,0.1,0.7c0,0.2-0.2,0.5-0.3,0.7c-0.2,0.3-0.5,0.4-0.8,0.5
	c-0.3,0.1-0.6,0.1-0.9,0l0,0c0.3,0.3,0.4,0.7,0.4,1C126.5,31.7,126.3,32,126,32.4L126,32.4z M126.1,28.9c0.1-0.1,0.1-0.2,0.2-0.3
	c0-0.1,0-0.2,0-0.4c-0.1-0.1-0.1-0.2-0.3-0.3c-0.1-0.1-0.3-0.2-0.5-0.4l-0.1-0.1l-0.9,1.1l0.2,0.1c0.2,0.2,0.4,0.3,0.5,0.4
	c0.1,0.1,0.2,0.1,0.3,0.2c0.1,0,0.3,0,0.4,0C125.9,29.1,126,29,126.1,28.9L126.1,28.9z M124.7,31.3c0.1-0.2,0.2-0.3,0.2-0.5
	c0-0.1,0-0.3-0.1-0.4c-0.1-0.1-0.1-0.2-0.3-0.3c-0.1-0.1-0.3-0.3-0.5-0.5l-0.2-0.2l-1.1,1.3l0.1,0.1c0.3,0.3,0.6,0.5,0.7,0.6
	c0.1,0.1,0.3,0.2,0.5,0.2c0.2,0,0.3,0,0.4,0C124.5,31.5,124.6,31.4,124.7,31.3L124.7,31.3z M127.2,36.4l5.1-4.4l3,3.4l-1,0.8
	l-1.9-2.2l-0.9,0.8l1.7,2l-1,0.8l-1.7-2l-1.3,1.1l1.9,2.2l-1,0.8L127.2,36.4L127.2,36.4z M135.2,46.6l6.9-1.4l0.9,1.6l-4.7,5.3
	l-0.9-1.5l1-1.1l-1.1-1.8l-1.4,0.3L135.2,46.6L135.2,46.6z M139.4,48.6l1.6-1.7l-2.3,0.5L139.4,48.6L139.4,48.6z"/>
<path class="st5" d="M33.1,124.7l-6.3,2.8l-1.1-1.5l2.6-3.4l-3.9,1.7l-1.1-1.5l4.2-5.5l1.1,1.4l-3,3.5l4.2-1.9l1,1.3l-2.9,3.6l4.1-2
	L33.1,124.7L33.1,124.7z M34.2,135.3l-1.2-1.2l2.1-2.1l-1.7-1.6l-2.1,2.1l-1.2-1.2l4.7-4.8l1.2,1.2l-1.7,1.8L36,131l1.7-1.8l1.2,1.2
	L34.2,135.3L34.2,135.3z M44.3,138.8c-0.6,0.9-1.4,1.4-2.2,1.6c-0.8,0.2-1.7-0.1-2.5-0.6c-0.8-0.6-1.3-1.3-1.4-2.2
	c-0.1-0.9,0.2-1.7,0.8-2.6c0.6-0.9,1.4-1.4,2.2-1.6s1.7,0,2.5,0.6c0.8,0.6,1.3,1.3,1.4,2.2C45.2,137,44.9,137.9,44.3,138.8
	L44.3,138.8z M42.9,137.8c0.2-0.3,0.4-0.6,0.5-0.9c0.1-0.3,0.1-0.5,0.1-0.8c0-0.2-0.1-0.4-0.2-0.6c-0.1-0.2-0.2-0.3-0.4-0.4
	c-0.2-0.1-0.3-0.2-0.5-0.2c-0.2,0-0.4,0-0.6,0c-0.2,0.1-0.4,0.2-0.7,0.4c-0.2,0.2-0.5,0.4-0.7,0.8c-0.2,0.3-0.4,0.6-0.5,0.9
	c-0.1,0.3-0.1,0.5-0.1,0.8c0,0.2,0.1,0.4,0.2,0.6c0.1,0.2,0.2,0.3,0.4,0.4c0.2,0.1,0.3,0.2,0.5,0.2c0.2,0,0.4,0,0.6,0
	c0.2-0.1,0.5-0.2,0.7-0.4C42.4,138.3,42.6,138.1,42.9,137.8L42.9,137.8z M60.7,143.2l-4.1,5.6l-1.7-0.7l0.6-4.3l-2.5,3.5l-1.7-0.7
	l0.9-6.9l1.6,0.7l-0.8,4.5l2.7-3.7l1.6,0.6l-0.7,4.6l2.6-3.8L60.7,143.2L60.7,143.2z M60.8,150.2l3.8-6l1.8,0.4l0.6,7.1l-1.7-0.4
	l-0.1-1.4l-2-0.5l-0.7,1.2L60.8,150.2L60.8,150.2z M65.1,148.7l-0.1-2.3l-1.2,2L65.1,148.7L65.1,148.7z M75.9,153.2l-1.6-0.2l-1.9-5
	l-0.7,4.6l-1.5-0.2l0.9-6.6l2.1,0.3l1.6,4.1l0.5-3.8l1.5,0.2L75.9,153.2L75.9,153.2z M81.2,153.3l-0.2-5.4l-2,0.1l0-1.3l5.7-0.2
	l0,1.3l-2,0.1l0.2,5.4L81.2,153.3L81.2,153.3z M90.3,152.8c-0.5,0.1-1,0.1-1.4,0c-0.4,0-0.8-0.1-1.1-0.2l-0.2-1.6l0.2,0
	c0.4,0.2,0.8,0.4,1.2,0.5c0.4,0.1,0.8,0.1,1.2,0.1c0.1,0,0.2,0,0.4-0.1c0.2,0,0.3-0.1,0.4-0.2c0.1-0.1,0.2-0.1,0.3-0.3
	c0.1-0.1,0.1-0.2,0.1-0.4c0-0.2-0.1-0.3-0.3-0.4c-0.1-0.1-0.3-0.1-0.5-0.2c-0.2,0-0.5-0.1-0.8-0.1c-0.3,0-0.5,0-0.7-0.1
	c-0.5-0.1-0.9-0.3-1.2-0.6c-0.3-0.3-0.4-0.6-0.5-1.1c-0.1-0.6,0.1-1.2,0.6-1.6c0.5-0.5,1.1-0.7,1.9-0.9c0.4-0.1,0.8-0.1,1.2,0
	c0.4,0,0.8,0.1,1.1,0.2l0.2,1.5l-0.1,0c-0.3-0.2-0.6-0.3-1-0.4c-0.4-0.1-0.8-0.1-1.1-0.1c-0.1,0-0.3,0-0.4,0.1
	c-0.1,0-0.2,0.1-0.3,0.2c-0.1,0.1-0.2,0.1-0.2,0.3c-0.1,0.1-0.1,0.2-0.1,0.3c0,0.2,0.1,0.3,0.2,0.4c0.1,0.1,0.4,0.1,0.7,0.2
	c0.2,0,0.5,0,0.7,0.1c0.2,0,0.4,0.1,0.7,0.1c0.5,0.1,0.9,0.3,1.1,0.5c0.3,0.3,0.4,0.6,0.5,1.1c0.1,0.7-0.1,1.2-0.6,1.7
	C91.9,152.4,91.2,152.7,90.3,152.8L90.3,152.8z M103.1,149.8l-1.9-5.1l-1.9,0.7l-0.4-1.2l5.3-1.9l0.4,1.2l-1.9,0.7l1.9,5.1
	L103.1,149.8L103.1,149.8z M113.7,141.8c0.5,1,0.6,1.9,0.4,2.7c-0.2,0.8-0.8,1.5-1.7,1.9c-0.9,0.5-1.8,0.5-2.6,0.2
	c-0.8-0.3-1.4-0.9-1.9-1.9c-0.5-1-0.6-1.9-0.4-2.7c0.2-0.8,0.8-1.5,1.7-1.9c0.9-0.5,1.8-0.5,2.6-0.3
	C112.6,140.2,113.2,140.8,113.7,141.8L113.7,141.8z M112.1,142.5c-0.2-0.4-0.4-0.6-0.6-0.9c-0.2-0.2-0.4-0.4-0.6-0.5
	c-0.2-0.1-0.4-0.1-0.6-0.1c-0.2,0-0.4,0.1-0.6,0.1c-0.2,0.1-0.3,0.2-0.5,0.4s-0.2,0.3-0.3,0.6c0,0.2,0,0.5,0,0.8
	c0.1,0.3,0.2,0.6,0.4,1c0.2,0.4,0.4,0.7,0.6,0.9c0.2,0.2,0.4,0.4,0.6,0.5c0.2,0.1,0.4,0.1,0.6,0.1c0.2,0,0.4-0.1,0.6-0.1
	c0.2-0.1,0.3-0.2,0.5-0.4c0.1-0.2,0.2-0.4,0.2-0.6c0-0.2,0-0.5,0-0.8C112.5,143.2,112.3,142.9,112.1,142.5L112.1,142.5z M125.8,135
	c0.2,0.3,0.3,0.5,0.4,0.8c0.1,0.3,0.1,0.5,0,0.8c-0.1,0.3-0.2,0.6-0.4,0.9c-0.2,0.3-0.5,0.5-0.8,0.8l-2.1,1.7l-4.2-5.2l1.8-1.5
	c0.4-0.3,0.7-0.5,0.9-0.7s0.5-0.2,0.7-0.3c0.3-0.1,0.5,0,0.7,0.1c0.2,0.1,0.4,0.3,0.6,0.5c0.2,0.3,0.3,0.5,0.4,0.8
	c0,0.3,0,0.6-0.2,0.9l0,0c0.4-0.2,0.7-0.3,1.1-0.2C125.2,134.5,125.5,134.7,125.8,135L125.8,135z M122.4,134.3
	c-0.1-0.1-0.2-0.2-0.3-0.2c-0.1-0.1-0.2-0.1-0.4,0c-0.1,0-0.2,0.1-0.4,0.2c-0.1,0.1-0.3,0.2-0.5,0.4l-0.1,0.1l0.9,1.1l0.2-0.1
	c0.2-0.2,0.4-0.3,0.5-0.4c0.1-0.1,0.2-0.2,0.2-0.3c0.1-0.1,0.1-0.3,0.1-0.4C122.5,134.5,122.5,134.4,122.4,134.3L122.4,134.3z
	 M124.4,136.1c-0.1-0.2-0.3-0.3-0.4-0.3s-0.3,0-0.5,0c-0.1,0-0.2,0.1-0.4,0.2c-0.1,0.1-0.3,0.3-0.6,0.4l-0.2,0.2l1.1,1.3l0.1-0.1
	c0.3-0.3,0.6-0.5,0.7-0.6c0.1-0.1,0.2-0.2,0.3-0.4c0.1-0.1,0.1-0.3,0.1-0.4C124.6,136.4,124.5,136.2,124.4,136.1L124.4,136.1z
	 M129.8,134.2l-4.7-4.8l3.3-3.2l0.9,0.9l-2.1,2l0.8,0.8l1.9-1.8l0.9,0.9l-1.9,1.8l1.2,1.2l2.1-2l0.9,0.9L129.8,134.2L129.8,134.2z
	 M138.6,124.6l-4.2-5.7l1.1-1.5l6.8,2l-1,1.4l-1.4-0.4l-1.2,1.7l0.9,1.1L138.6,124.6L138.6,124.6z M138.6,119.9l-2.2-0.7l1.4,1.8
	L138.6,119.9L138.6,119.9z"/>
<path class="st6" d="M32.6,124.4l-6.3,2.8l-1.1-1.5l2.6-3.4l-3.9,1.7l-1.1-1.5l4.2-5.5l1.1,1.4l-3,3.5l4.2-1.9l1,1.3l-2.9,3.6l4.1-2
	L32.6,124.4L32.6,124.4z M33.8,135l-1.2-1.2l2.1-2.1l-1.7-1.6l-2.1,2.1l-1.2-1.2l4.7-4.8l1.2,1.2l-1.7,1.8l1.7,1.6l1.7-1.8l1.2,1.2
	L33.8,135L33.8,135z M43.8,138.5c-0.6,0.9-1.4,1.4-2.2,1.6c-0.8,0.2-1.7-0.1-2.5-0.6c-0.8-0.6-1.3-1.3-1.4-2.2
	c-0.1-0.8,0.2-1.7,0.8-2.6c0.6-0.9,1.4-1.4,2.2-1.6c0.8-0.2,1.7,0,2.5,0.6c0.8,0.6,1.3,1.3,1.4,2.2
	C44.7,136.8,44.4,137.7,43.8,138.5L43.8,138.5z M42.4,137.5c0.2-0.3,0.4-0.6,0.5-0.9c0.1-0.3,0.1-0.5,0.1-0.8c0-0.2-0.1-0.4-0.2-0.6
	c-0.1-0.2-0.2-0.3-0.4-0.4c-0.2-0.1-0.3-0.2-0.5-0.2c-0.2,0-0.4,0-0.6,0c-0.2,0.1-0.4,0.2-0.7,0.4c-0.2,0.2-0.5,0.4-0.7,0.8
	c-0.2,0.3-0.4,0.6-0.5,0.9c-0.1,0.3-0.1,0.5-0.1,0.8c0,0.2,0.1,0.4,0.2,0.6s0.2,0.3,0.4,0.4c0.2,0.1,0.3,0.2,0.5,0.2
	c0.2,0,0.4,0,0.6,0c0.2-0.1,0.5-0.2,0.7-0.4C41.9,138.1,42.1,137.9,42.4,137.5L42.4,137.5z M60.2,142.9l-4.1,5.6l-1.7-0.7l0.6-4.3
	l-2.5,3.5l-1.7-0.7l0.9-6.9l1.6,0.7l-0.8,4.5l2.7-3.7l1.6,0.6l-0.7,4.6l2.6-3.8L60.2,142.9L60.2,142.9z M60.3,150l3.8-6l1.8,0.4
	l0.6,7.1l-1.7-0.4l-0.1-1.4l-2-0.5l-0.7,1.2L60.3,150L60.3,150z M64.6,148.4l-0.1-2.3l-1.2,2L64.6,148.4L64.6,148.4z M75.4,152.9
	l-1.6-0.2l-1.9-5l-0.7,4.6l-1.5-0.2l0.9-6.6l2.1,0.3l1.6,4.1l0.5-3.8l1.5,0.2L75.4,152.9L75.4,152.9z M80.8,153.1l-0.2-5.4l-2,0.1
	l0-1.3l5.7-0.2l0,1.3l-2,0.1l0.2,5.4L80.8,153.1L80.8,153.1z M89.8,152.6c-0.5,0.1-1,0.1-1.4,0c-0.4,0-0.8-0.1-1.1-0.2l-0.2-1.6
	l0.2,0c0.4,0.2,0.8,0.4,1.2,0.5c0.4,0.1,0.8,0.1,1.2,0.1c0.1,0,0.2,0,0.4-0.1c0.2,0,0.3-0.1,0.4-0.1c0.1-0.1,0.2-0.1,0.3-0.3
	c0.1-0.1,0.1-0.2,0.1-0.4c0-0.2-0.1-0.3-0.3-0.4c-0.1-0.1-0.3-0.1-0.5-0.2c-0.2,0-0.5-0.1-0.7-0.1c-0.3,0-0.5,0-0.7-0.1
	c-0.5-0.1-0.9-0.3-1.2-0.6c-0.3-0.3-0.4-0.6-0.5-1.1c-0.1-0.6,0.1-1.2,0.6-1.6c0.5-0.5,1.1-0.7,1.9-0.9c0.4-0.1,0.8-0.1,1.2,0
	c0.4,0,0.8,0.1,1.1,0.2l0.2,1.5l-0.1,0c-0.3-0.2-0.6-0.3-1-0.4c-0.4-0.1-0.8-0.1-1.1-0.1c-0.1,0-0.3,0.1-0.4,0.1
	c-0.1,0-0.2,0.1-0.3,0.2c-0.1,0.1-0.2,0.1-0.2,0.3c-0.1,0.1-0.1,0.2-0.1,0.3c0,0.2,0.1,0.3,0.2,0.4c0.1,0.1,0.4,0.1,0.7,0.2
	c0.2,0,0.5,0,0.7,0.1c0.2,0,0.4,0.1,0.7,0.1c0.5,0.1,0.9,0.3,1.1,0.5c0.3,0.3,0.4,0.6,0.5,1.1c0.1,0.7-0.1,1.2-0.6,1.7
	C91.4,152.2,90.7,152.5,89.8,152.6L89.8,152.6z M102.6,149.6l-1.9-5.1l-1.9,0.7l-0.4-1.2l5.3-1.9l0.4,1.2l-1.9,0.7l1.9,5.1
	L102.6,149.6L102.6,149.6z M113.2,141.5c0.5,1,0.6,1.9,0.4,2.7c-0.2,0.8-0.8,1.5-1.7,1.9c-0.9,0.5-1.8,0.5-2.6,0.2
	c-0.8-0.3-1.4-0.9-1.9-1.9c-0.5-1-0.6-1.9-0.4-2.7c0.2-0.8,0.8-1.5,1.7-1.9c0.9-0.5,1.8-0.5,2.6-0.2
	C112.1,139.9,112.7,140.5,113.2,141.5L113.2,141.5z M111.7,142.3c-0.2-0.4-0.4-0.6-0.6-0.9c-0.2-0.2-0.4-0.4-0.6-0.5
	c-0.2-0.1-0.4-0.1-0.6-0.1c-0.2,0-0.4,0.1-0.6,0.1c-0.2,0.1-0.3,0.2-0.5,0.4c-0.1,0.1-0.2,0.3-0.3,0.6c0,0.2,0,0.5,0,0.8
	c0.1,0.3,0.2,0.6,0.4,1c0.2,0.4,0.4,0.7,0.6,0.9c0.2,0.2,0.4,0.4,0.6,0.5c0.2,0.1,0.4,0.1,0.6,0.1c0.2,0,0.4-0.1,0.6-0.1
	c0.2-0.1,0.3-0.2,0.5-0.4c0.1-0.2,0.2-0.4,0.2-0.6c0-0.2,0-0.5,0-0.8C112,143,111.8,142.7,111.7,142.3L111.7,142.3z M125.3,134.8
	c0.2,0.3,0.3,0.5,0.4,0.8c0.1,0.3,0.1,0.5,0,0.8c-0.1,0.3-0.2,0.6-0.4,0.9c-0.2,0.3-0.5,0.5-0.8,0.8l-2.1,1.7l-4.2-5.2l1.8-1.5
	c0.4-0.3,0.7-0.5,0.9-0.7c0.2-0.1,0.5-0.2,0.7-0.3c0.3-0.1,0.5,0,0.7,0.1c0.2,0.1,0.4,0.2,0.6,0.5c0.2,0.3,0.3,0.5,0.4,0.8
	c0,0.3,0,0.6-0.2,0.9l0,0c0.4-0.2,0.7-0.3,1.1-0.2C124.7,134.2,125,134.4,125.3,134.8L125.3,134.8z M121.9,134
	c-0.1-0.1-0.2-0.2-0.3-0.2c-0.1-0.1-0.2-0.1-0.4,0c-0.1,0-0.2,0.1-0.4,0.2c-0.1,0.1-0.3,0.2-0.5,0.4l-0.1,0.1l0.9,1.1l0.2-0.1
	c0.2-0.2,0.4-0.3,0.5-0.4c0.1-0.1,0.2-0.2,0.2-0.3c0.1-0.1,0.1-0.3,0.1-0.4C122.1,134.2,122,134.1,121.9,134L121.9,134z M124,135.9
	c-0.1-0.2-0.3-0.3-0.4-0.3c-0.1,0-0.3,0-0.5,0c-0.1,0-0.2,0.1-0.4,0.2c-0.1,0.1-0.3,0.3-0.6,0.4l-0.2,0.2l1.1,1.3l0.1-0.1
	c0.3-0.3,0.6-0.5,0.7-0.6c0.1-0.1,0.2-0.3,0.3-0.4c0.1-0.1,0.1-0.3,0.1-0.4C124.1,136.1,124.1,136,124,135.9L124,135.9z M129.3,134
	l-4.7-4.8l3.3-3.2l0.9,0.9l-2.1,2l0.8,0.8l1.9-1.8l0.9,0.9l-1.9,1.8l1.2,1.2l2.1-2l0.9,0.9L129.3,134L129.3,134z M138.1,124.3
	l-4.2-5.7l1.1-1.5l6.8,2l-1,1.4l-1.4-0.4l-1.2,1.7l0.9,1.1L138.1,124.3L138.1,124.3z M138.2,119.7l-2.2-0.7l1.4,1.8L138.2,119.7
	L138.2,119.7z"/>
<path class="st7" d="M81,5.6L81,5.6c20.8,0,39.6,8.5,53.3,22.1C148,41.4,156.4,60.2,156.4,81v0v0c0,20.8-8.5,39.6-22.1,53.3
	c-13.7,13.7-32.5,22.1-53.3,22.1h0h0c-20.8,0-39.6-8.5-53.3-22.1S5.6,101.8,5.6,81v0v0c0-20.8,8.5-39.6,22.1-53.3
	C41.4,14,60.2,5.6,81,5.6L81,5.6L81,5.6z M81,6.4L81,6.4L81,6.4c-20.6,0-39.2,8.4-52.7,21.9S6.4,60.4,6.4,81v0v0
	c0,20.5,8.4,39.2,21.9,52.7c13.5,13.5,32.2,21.9,52.7,21.9h0h0c20.5,0,39.2-8.4,52.7-21.9s21.9-32.2,21.9-52.7v0v0
	c0-20.5-8.4-39.2-21.9-52.7C120.2,14.8,101.5,6.4,81,6.4L81,6.4z"/>
<path class="st8" d="M55,24.5L55,24.5L55,24.5l1.8-0.8l4.5,5.8l5.9,9.9l5.8,9.8L80.1,63l7.2,15.5l0,0l0,0l0,0l0,0l0,0l0,0l0,0h0v0v0
	l0,0l0,0l0,0c2,4.4,3.9,8.6,5.7,12.7l1.8,4.1l1.7,4l1.5,3.8l7.9,19.6l4,14.2l-2.5,1.1l0,0l0,0l-1.8,0.8l-4.5-5.8l-5.9-9.9l-5.8-9.8
	l-7.1-13.8l-7.2-15.5l0,0l0,0l0,0l0,0l0,0l0,0l0,0c0,0,0,0,0,0c0,0,0,0,0,0l0,0c-7.2-15.5-13-30-16.7-40.7l-3.8-10.9l-1.4-7.2
	L55,24.5L55,24.5L55,24.5L55,24.5z M55.4,25.3L55.4,25.3L55.4,25.3L55.4,25.3c-1.3,0.6,0.2,7.4,3.8,17.9l3.7,10.7l5.9,14.4l7.2,15.5
	l0,0l0,0l0,0l0,0l0,0l0,0l0,0v0c0,0,0,0,0,0v0h0c7.2,15.5,14.3,29.3,20,39l5.6,9.5l4.2,5.6l1.3-0.6l0,0l2-0.9l-4.2-13.8l-7.7-19.2
	l-1.5-3.7l-1.7-4l-1.8-4.1l-1.8-4.1l-1.9-4.3l-2-4.3l0,0l0,0l0,0l0,0l0,0l0,0l0,0c-7.2-15.5-14.3-29.3-20-39l-5.6-9.5l-4.2-5.6
	L55.4,25.3L55.4,25.3L55.4,25.3z M75.9,83.8C75.9,83.8,75.9,83.8,75.9,83.8C75.9,83.8,75.9,83.8,75.9,83.8L75.9,83.8 M75.9,83.8
	C75.9,83.8,75.9,83.8,75.9,83.8 M75.1,84.1C75.1,84.1,75.1,84.1,75.1,84.1L75.1,84.1"/>
<path class="st8" d="M76.1,19L76.1,19L76.1,19L76.1,19L76.1,19L76.1,19z M76.1,19C76.1,19,76.1,19,76.1,19L76.1,19L76.1,19L76.1,19
	L76.1,19c0.3,0,0.5,0.1,0.7,0.2l0.2,0.1l0.2,0.2l0.2,0.2l0.9,1.1l0.9,2.4l0.9,3.4v0v0l0,0l0.4,1.5l0.4,1.7l0.4,1.8l0.4,1.8l0.4,2
	l0.4,2.2l2,11.1l2,15.3l1.4,16.9l0,0l0,0l0,0.1h0l1.4,17l0.6,15.5l-0.2,11.3l-0.2,11.5l-1.1,7.2l-1.9,0.2v0l-0.1,0l0,0l0,0h0l0,0
	l0,0l0,0h0h0h0h0c-2,0.1-4.2-6.9-6.3-18.1L78,114.4l-2-15.4l-1.4-17v0l0,0l0-0.1l0-0.1l0,0l0,0l0-0.1v0v0l0,0c0,0,0,0,0,0
	 M76.1,19.8L76.1,19.8L76.1,19.8L76.1,19.8L76.1,19.8L76.1,19.8L76.1,19.8C76.1,19.8,76.1,19.8,76.1,19.8L76.1,19.8L76.1,19.8
	L76.1,19.8L76.1,19.8L76.1,19.8C76.1,19.8,76.1,19.8,76.1,19.8L76.1,19.8L76.1,19.8L76.1,19.8L76.1,19.8L76.1,19.8z M76.1,19.8
	L76.1,19.8C76.1,19.8,76.1,19.8,76.1,19.8L76.1,19.8C76.1,19.8,76.1,19.8,76.1,19.8L76.1,19.8L76.1,19.8L76.1,19.8L76.1,19.8
	L74.6,20l-0.9,6.9L73.6,38l-0.2,11.3L74,64.7l1.4,17v0l0,0l0,0.1l0,0.1l0,0l0,0l0,0.1l0,0l1.4,17l2,15.4l2.1,11.1l2,10.9l2,6.7
	l1.5-0.1l0,0v0l0,0c0,0,0,0,0,0v0l0,0l0,0h0h0l0,0l0,0h0l0,0c0,0,0,0,0,0l0,0c0,0,0,0,0,0c0,0,0,0,0,0h0v0l0,0l0,0v0v0h0l1.5-0.2
	l0.9-6.9l0.2-11.1l0.2-11.3L88.5,98l-1.4-17l0,0l0,0l0-0.1l0-0.1L85.7,64l-2-15.3l-2-11.1l-0.4-2.1l-0.4-2l-0.4-1.8l-0.4-1.8
	l-0.4-1.6l-0.4-1.4h0l0,0l0,0l-0.9-3.3l-0.9-2.3l-0.8-1l-0.1-0.2L76.5,20l-0.1-0.1l-0.1-0.1L76.1,19.8L76.1,19.8L76.1,19.8z
	 M76.1,19.8L76.1,19.8C76.1,19.8,76.1,19.8,76.1,19.8L76.1,19.8z M86.3,142.9C86.3,142.9,86.3,142.9,86.3,142.9L86.3,142.9
	L86.3,142.9z M74.6,81.7c-1.4-17-2-32.5-1.8-43.8L73,26.5l1.1-7.2L76,19v0l0.1,0l0,0h0l0,0"/>
<path class="st8" d="M97.7,21L97.7,21L97.7,21l1.9,0.5l-0.2,7.3l-1.9,11.4l-1.9,11.2l-3.4,15.2l-4.5,16.5h0c0,0,0,0,0,0.1l0,0
	c0,0,0,0,0,0v0l-4.5,16.5l-4.8,14.8L74.3,125l-4.1,10.8l-3.5,6.4l-1.9-0.5h0l0,0l0,0l0,0l-1.9-0.5l0.2-7.3l1.9-11.4l1.9-11.2
	l3.4-15.2l4.5-16.5h0c0,0,0,0,0-0.1l0,0l0,0v0c0,0,0,0,0,0 M97.5,21.8L97.5,21.8L97.5,21.8L97.5,21.8L97.5,21.8
	c-1.4-0.4-4.6,5.8-8.6,16.2l-4.1,10.5l-4.8,14.8l-4.5,16.5h0c0,0,0,0,0,0.1l0,0c0,0,0,0,0,0v0v0v0c0,0,0,0,0,0l0,0c0,0,0,0,0,0
	c0,0,0,0,0,0l0,0c0,0,0,0,0,0v0l-4.5,16.5l-3.4,15.1l-1.9,11.1L64,133.5l-0.4,7l1.4,0.4v0l0,0h0v0c1.4,0.4,4.6-5.9,8.6-16.2
	l4.1-10.5l4.8-14.8L86.9,83h0c0,0,0,0,0-0.1l0,0c0,0,0,0,0,0l0,0v0v0c0,0,0,0,0,0c0,0,0,0,0,0h0c0,0,0,0,0,0v0l4.5-16.5l3.4-15.1
	l1.9-11.1l1.8-10.9l0.4-7L97.5,21.8L97.5,21.8z M87.7,83.1L87.7,83.1L87.7,83.1L87.7,83.1C87.7,83.1,87.7,83.1,87.7,83.1L87.7,83.1
	L87.7,83.1L87.7,83.1C87.7,83.1,87.7,83.1,87.7,83.1 M87.7,83.1C87.7,83.1,87.7,83.1,87.7,83.1C87.7,83.1,87.7,83.1,87.7,83.1
	L87.7,83.1z M87.7,83.1C87.7,83.1,87.7,83.1,87.7,83.1C87.7,83.1,87.7,83.1,87.7,83.1L87.7,83.1z M87.7,83.1
	C87.7,83.1,87.7,83.1,87.7,83.1C87.7,83.1,87.7,83.1,87.7,83.1L87.7,83.1z M87.7,83.1C87.7,83.1,87.7,83.1,87.7,83.1L87.7,83.1
	C87.7,83.1,87.7,83.1,87.7,83.1C87.7,83.1,87.7,83.1,87.7,83.1C87.7,83.1,87.7,83.1,87.7,83.1L87.7,83.1L87.7,83.1L87.7,83.1
	L87.7,83.1L87.7,83.1 M87.7,83.1L87.7,83.1 M87.7,83.1C87.7,83.1,87.7,83.1,87.7,83.1C87.7,83.1,87.7,83.1,87.7,83.1L87.7,83.1z
	 M87.7,83.1L87.7,83.1L87.7,83.1L87.7,83.1z M87.7,83.1C87.7,83.1,87.7,83.1,87.7,83.1C87.7,83.1,87.7,83.1,87.7,83.1L87.7,83.1z
	 M87.7,83.1L87.7,83.1L87.7,83.1L87.7,83.1z M87.7,83.1C87.7,83.1,87.7,83.1,87.7,83.1C87.7,83.1,87.7,83.1,87.7,83.1L87.7,83.1z
	 M87.7,83.1L87.7,83.1L87.7,83.1L87.7,83.1z M87.7,83.1C87.7,83.1,87.7,83.1,87.7,83.1C87.7,83.1,87.7,83.1,87.7,83.1L87.7,83.1z
	 M86.9,82.9L86.9,82.9L86.9,82.9L86.9,82.9z M86.9,82.9C86.9,82.9,86.9,82.9,86.9,82.9L86.9,82.9C86.9,82.9,86.9,82.9,86.9,82.9
	C86.9,82.9,86.9,82.9,86.9,82.9C86.9,82.9,86.9,82.9,86.9,82.9C86.9,82.9,86.9,82.9,86.9,82.9 M86.9,82.9L86.9,82.9L86.9,82.9
	L86.9,82.9z M86.9,82.9C86.9,82.9,86.9,82.9,86.9,82.9C86.9,82.9,86.9,82.9,86.9,82.9C86.9,82.9,86.9,82.9,86.9,82.9
	C86.9,82.9,86.9,82.9,86.9,82.9C86.9,82.9,86.9,82.9,86.9,82.9L86.9,82.9L86.9,82.9z M86.9,82.9L86.9,82.9L86.9,82.9L86.9,82.9z
	 M86.9,82.9L86.9,82.9L86.9,82.9L86.9,82.9z M86.9,82.9L86.9,82.9L86.9,82.9L86.9,82.9z M86.9,82.9C86.9,82.9,86.9,82.9,86.9,82.9
	C86.9,82.9,86.9,82.9,86.9,82.9L86.9,82.9z M86.9,82.9L86.9,82.9C86.9,82.9,86.9,82.9,86.9,82.9L86.9,82.9 M86.9,82.9
	C86.9,82.9,86.9,82.9,86.9,82.9L86.9,82.9L86.9,82.9z M87.7,83.1C87.7,83.1,87.7,83.1,87.7,83.1 M87.7,83.1
	C87.7,83.1,87.7,83.1,87.7,83.1 M74.8,79.6C74.8,79.6,74.8,79.6,74.8,79.6C74.8,79.6,74.8,79.6,74.8,79.6L74.8,79.6
	C74.8,79.6,74.8,79.6,74.8,79.6L74.8,79.6L79.3,63l4.8-14.8l4.1-10.6l4.1-10.8l3.5-6.4l1.9,0.5h0l0,0 M74.8,79.6L74.8,79.6
	L74.8,79.6L74.8,79.6z M74.8,79.6L74.8,79.6L74.8,79.6L74.8,79.6z M74.8,79.6C74.8,79.6,74.8,79.6,74.8,79.6
	C74.8,79.6,74.8,79.6,74.8,79.6L74.8,79.6z M74.8,79.6C74.8,79.6,74.8,79.6,74.8,79.6C74.8,79.6,74.8,79.6,74.8,79.6L74.8,79.6z
	 M74.8,79.6C74.8,79.6,74.8,79.6,74.8,79.6C74.8,79.6,74.8,79.6,74.8,79.6L74.8,79.6C74.8,79.6,74.8,79.6,74.8,79.6
	C74.8,79.6,74.8,79.6,74.8,79.6C74.8,79.6,74.8,79.6,74.8,79.6 M74.8,79.6C74.8,79.6,74.8,79.6,74.8,79.6
	C74.8,79.6,74.8,79.6,74.8,79.6L74.8,79.6z M74.8,79.6L74.8,79.6L74.8,79.6L74.8,79.6z M74.8,79.6C74.8,79.6,74.8,79.6,74.8,79.6
	C74.8,79.6,74.8,79.6,74.8,79.6L74.8,79.6z M74.8,79.6C74.8,79.6,74.8,79.6,74.8,79.6C74.8,79.6,74.8,79.6,74.8,79.6L74.8,79.6z
	 M74.8,79.6L74.8,79.6L74.8,79.6L74.8,79.6z M74.8,79.6C74.8,79.6,74.8,79.6,74.8,79.6C74.8,79.6,74.8,79.6,74.8,79.6L74.8,79.6z
	 M74.8,79.6C74.8,79.6,74.8,79.6,74.8,79.6C74.8,79.6,74.8,79.6,74.8,79.6L74.8,79.6z M74.8,79.6C74.8,79.6,74.8,79.6,74.8,79.6
	C74.8,79.6,74.8,79.6,74.8,79.6L74.8,79.6z M75.6,79.8C75.6,79.8,75.6,79.8,75.6,79.8C75.6,79.8,75.6,79.8,75.6,79.8L75.6,79.8z
	 M75.6,79.8C75.6,79.8,75.6,79.8,75.6,79.8C75.6,79.8,75.6,79.8,75.6,79.8L75.6,79.8z M75.6,79.8C75.6,79.8,75.6,79.8,75.6,79.8
	C75.6,79.8,75.6,79.8,75.6,79.8L75.6,79.8z M75.6,79.8L75.6,79.8L75.6,79.8L75.6,79.8z M75.6,79.8L75.6,79.8L75.6,79.8L75.6,79.8z
	 M75.6,79.8L75.6,79.8L75.6,79.8L75.6,79.8z M75.6,79.8L75.6,79.8L75.6,79.8L75.6,79.8z M75.6,79.8C75.6,79.8,75.6,79.8,75.6,79.8
	C75.6,79.8,75.6,79.8,75.6,79.8L75.6,79.8z M75.6,79.8C75.6,79.8,75.6,79.8,75.6,79.8C75.6,79.8,75.6,79.8,75.6,79.8L75.6,79.8z
	 M75.6,79.8C75.6,79.8,75.6,79.8,75.6,79.8L75.6,79.8L75.6,79.8z M75.6,79.8L75.6,79.8C75.6,79.8,75.6,79.8,75.6,79.8L75.6,79.8z
	 M75.6,79.8L75.6,79.8L75.6,79.8L75.6,79.8z M75.6,79.8C75.6,79.8,75.6,79.8,75.6,79.8C75.6,79.8,75.6,79.8,75.6,79.8L75.6,79.8z
	 M75.6,79.8C75.6,79.8,75.6,79.8,75.6,79.8C75.6,79.8,75.6,79.8,75.6,79.8L75.6,79.8z M75.6,79.8L75.6,79.8L75.6,79.8L75.6,79.8z
	 M75.6,79.8C75.6,79.8,75.6,79.8,75.6,79.8L75.6,79.8L75.6,79.8z M74.8,79.6C74.8,79.6,74.8,79.6,74.8,79.6L74.8,79.6L74.8,79.6z"/>
<path class="st8" d="M117.4,30.3C117.4,30.3,117.4,30.3,117.4,30.3C117.4,30.3,117.4,30.3,117.4,30.3L117.4,30.3
	C117.4,30.3,117.4,30.3,117.4,30.3c1.6,1.3-1.2,8-6.8,18c-5.6,9.9-14,23-23.9,36.9h0c0,0,0,0,0,0c0,0,0,0,0,0c0,0,0,0,0,0
	c0,0,0,0,0,0l0,0c-2.7,3.9-5.5,7.7-8.2,11.3c-2.7,3.6-5.3,7-7.8,10.2c-13,16.6-23.3,27.2-25.6,25.7l0,0c0,0,0,0,0,0c0,0,0,0,0,0
	c0,0,0,0,0,0s0,0,0,0c0,0,0,0,0,0l0,0c0,0,0,0,0,0c-1.5-1.3,1.2-8,6.8-18c5.6-9.9,14-23,23.9-36.9l0,0c0,0,0,0,0,0c0,0,0,0,0,0l0,0
	c2.7-3.9,5.5-7.7,8.2-11.3c2.7-3.6,5.3-7,7.8-10.2C104.8,39.3,115.1,28.7,117.4,30.3 M116.9,31C116.9,31,116.9,31,116.9,31L116.9,31
	c-1.8-1.3-11.7,9.2-24.5,25.5c-2.5,3.2-5.1,6.6-7.8,10.2c-2.6,3.6-5.4,7.3-8.2,11.3l0,0c0,0,0,0,0,0c0,0,0,0,0,0l0,0
	c-9.9,14-18.3,27-23.8,36.9c-5.4,9.6-8.2,16-7,16.9l0,0l0,0c1.8,1.3,11.7-9.2,24.5-25.5c2.5-3.2,5.1-6.6,7.8-10.2
	c2.7-3.6,5.4-7.3,8.2-11.3l0,0c0,0,0,0,0,0c0,0,0,0,0,0l0,0c9.9-14,18.3-27,23.8-36.9C115.3,38.2,118.1,31.8,116.9,31L116.9,31z
	 M117.4,30.3L117.4,30.3 M86.7,85.2C86.7,85.2,86.7,85.2,86.7,85.2 M86.7,85.2C86.7,85.2,86.7,85.2,86.7,85.2
	C86.7,85.2,86.7,85.2,86.7,85.2L86.7,85.2z M86,84.7C86,84.7,86,84.7,86,84.7C86,84.7,86,84.7,86,84.7L86,84.7z M86,84.8
	C86,84.8,86,84.8,86,84.8C86,84.8,86,84.8,86,84.8L86,84.8z M86,84.8C86,84.8,86,84.8,86,84.8C86,84.8,86,84.8,86,84.8L86,84.8z
	 M45.1,132.4C45.1,132.4,45.1,132.4,45.1,132.4C45.1,132.4,45.1,132.4,45.1,132.4C45,132.4,45,132.4,45.1,132.4
	C45,132.4,45,132.4,45.1,132.4L45.1,132.4z M75.8,77.5C75.8,77.5,75.8,77.5,75.8,77.5L75.8,77.5C75.8,77.5,75.8,77.5,75.8,77.5
	C75.8,77.5,75.8,77.5,75.8,77.5C75.8,77.5,75.8,77.5,75.8,77.5 M76.4,78C76.4,78,76.4,78,76.4,78"/>
<path class="st8" d="M132.7,45.7L132.7,45.7L132.7,45.7c0.4,0.5,0.2,1.4-0.5,2.5l-0.6,1l-1,1.2l-1.4,1.5l-7.1,7.5l-16.8,13.4
	L85,86.8c0,0,0,0,0,0l0,0c-4,2.8-7.9,5.4-11.6,7.8l-3.7,2.4l-3.6,2.3l-3.5,2.2l-17.9,11.2l-13.3,6.4l-1.6-2.2l0,0l0,0l0,0
	c-0.4-0.5-0.2-1.4,0.5-2.5l0.6-1l1-1.2l1.4-1.5l7.1-7.5l16.8-13.4l20.3-14l0,0l-0.1,0.1l0.1-0.1l0,0c4-2.8,7.9-5.4,11.6-7.8l3.7-2.4
	l3.6-2.3l3.5-2.2l17.9-11.2l13.3-6.4L132.7,45.7L132.7,45.7L132.7,45.7z M132,46.2L132,46.2L132,46.2c-1.3-1.8-14.2,4.7-31.7,15.6
	l-3.4,2.1l-3.6,2.3l-3.8,2.5l-3.8,2.5l-3.9,2.6l-3.9,2.7l0,0l0,0l0,0l0,0c0,0,0,0,0,0c0,0,0,0,0,0c0,0,0,0,0,0
	c-20.2,14-36.9,27.4-44,34.8l-1.4,1.4l-1,1.2l-0.6,0.9l-0.5,0.8l-0.2,0.6l0.2,0.3l0,0l0,0l0,0c1.3,1.8,14.2-4.7,31.7-15.6l3.4-2.1
	l3.6-2.3L73,94l3.8-2.5l3.9-2.6l3.9-2.7l0,0l0,0l0,0l0,0c0,0,0,0,0,0c0,0,0,0,0,0c20.2-14,36.9-27.3,44-34.8l1.4-1.4l1-1.2l0.6-0.9
	L132,47l0.2-0.6L132,46.2L132,46.2L132,46.2z M85,86.8C85,86.9,85,86.9,85,86.8L85,86.8L85,86.8L85,86.8 M84.6,86.2L84.6,86.2
	L84.6,86.2L84.6,86.2C84.6,86.2,84.6,86.2,84.6,86.2L84.6,86.2z M77.9,76.5L77.9,76.5C77.9,76.5,77.9,76.5,77.9,76.5
	C77.9,76.5,77.9,76.6,77.9,76.5"/>
<path class="st8" d="M141.8,65.5L141.8,65.5L141.8,65.5l0.5,1.9l-6.5,3.5l-10.8,4l-10.6,4l-14.8,4.6L83,87.8l0,0l-0.1,0l0,0h0l0,0
	l0,0l0,0v0c-4.7,1.2-9.2,2.4-13.5,3.4l-4.3,1l-4.2,0.9l-4,0.8l-20.7,4.4l-14.7,1.5l-0.7-2.6l0,0l0,0l-0.5-1.9l6.5-3.5l10.8-4l10.6-4
	l14.8-4.6l16.6-4.3l0,0l0.1,0l0,0l0,0l0,0l0,0l0,0v0c4.7-1.2,9.2-2.4,13.5-3.4l4.3-1l4.2-0.9l4-0.8l20.7-4.4l14.7-1.5L141.8,65.5
	L141.8,65.5z M141,65.7L141,65.7l-0.6-2.2l-14.3,1.7l-20.2,4.3l-3.9,0.8l-4.2,0.9l-4.4,1l-4.4,1l-4.5,1.1l-4.6,1.2l0,0l-0.1,0l0,0
	l0,0l0,0l0,0l0,0v0C63.2,80,48.3,84.6,37.8,88.6l-10.4,3.9l-6.3,3.1l0.4,1.4l0,0v0l0.6,2.2l14.3-1.7l20.2-4.3l3.9-0.8l4.2-0.9l4.4-1
	l4.4-1l4.5-1.1l4.6-1.2l0,0l0.1,0l0,0l0,0l0,0l0,0l0,0h0c16.5-4.3,31.3-8.9,41.9-12.9l10.4-3.9l6.3-3.1L141,65.7L141,65.7L141,65.7z
	"/>
<path class="st8" d="M143.5,87.2C143.5,87.2,143.5,87.2,143.5,87.2l-0.1,0.7l-0.7,0.5l-1.2,0.4l-1.1,0.4l-1.6,0.3l-2,0.2l-10.2,1.2
	l-21.4-0.5L80.7,88c0.1,0,0.1,0-0.3,0l0,0l-17-1.6l-15.4-2.1L37,82.1l-11.3-2.2l-6.9-2.3l0.1-2v0v0v0c0,0,0,0,0,0c0,0,0,0,0,0
	c0,0,0,0,0,0 M142.7,87.1L142.7,87.1L142.7,87.1L142.7,87.1L142.7,87.1C142.7,87.1,142.7,87.1,142.7,87.1L142.7,87.1l0.1-1.5
	l-6.7-2.1l-10.9-2.1l-11.1-2.2l-15.3-2.1l-17-1.6v0l-0.7-0.1l0.9,0.1l-0.4,0l-24.4-2.3L36,72.7l-10.2,1.2l-2,0.2l-1.5,0.3l-1.1,0.3
	L20.3,75l-0.5,0.3l0,0.3c0,0,0,0,0,0v0l-0.1,1.5l6.7,2.1l10.9,2.1l11.1,2.2l15.3,2.1l17,1.6v0l0.7,0.1l-0.9-0.1l0.4,0l24.5,2.3
	l21.3,0.5l10.2-1.2l2-0.2l1.5-0.3l1.1-0.3l0.9-0.3l0.5-0.3L142.7,87.1L142.7,87.1z M142.7,87.1C142.7,87.1,142.7,87.1,142.7,87.1
	L142.7,87.1L142.7,87.1L142.7,87.1L142.7,87.1 M18.9,75.6L18.9,75.6C18.9,75.6,18.9,75.6,18.9,75.6C18.9,75.5,18.9,75.5,18.9,75.6
	l0.1-0.7l0.7-0.5l1.2-0.4l1.1-0.4l1.6-0.3l2-0.2l10.2-1.2l21.3,0.5l24.4,2.3c-0.1,0-0.1,0,0.3,0l0,0l17,1.6l15.4,2.1l11.1,2.2
	l11.3,2.2l6.9,2.3l-0.1,2l0,0c0,0,0,0,0,0c0,0,0,0,0,0l0,0 M19.7,75.6L19.7,75.6C19.7,75.6,19.7,75.6,19.7,75.6 M19.7,75.6
	C19.7,75.6,19.7,75.6,19.7,75.6 M19.7,75.6C19.7,75.6,19.7,75.6,19.7,75.6L19.7,75.6L19.7,75.6L19.7,75.6L19.7,75.6z M19.7,75.6
	C19.7,75.6,19.7,75.6,19.7,75.6C19.7,75.6,19.7,75.6,19.7,75.6L19.7,75.6z M81.7,74.7C81.7,74.7,81.7,74.7,81.7,74.7
	C81.7,74.7,81.7,74.7,81.7,74.7L81.7,74.7z M142.7,87.1C142.7,87.1,142.7,87.1,142.7,87.1L142.7,87.1"/>
<path class="st8" d="M137.8,108.1C137.8,108.1,137.8,108.1,137.8,108.1C137.8,108.1,137.8,108.1,137.8,108.1L137.8,108.1z
	 M137.8,108.1C137.8,108.1,137.8,108.1,137.8,108.1L137.8,108.1C137.8,108.1,137.8,108.1,137.8,108.1L137.8,108.1z M137.8,108.1
	C137.8,108.1,137.8,108.1,137.8,108.1C137.8,108.1,137.8,108.1,137.8,108.1L137.8,108.1L137.8,108.1z M137.8,108.1
	C137.8,108.1,137.8,108.1,137.8,108.1L137.8,108.1l-0.3,0.6l-0.8,0.3l-1.3,0l-1.2,0l-1.6-0.3l-2-0.5l-10-2.4l-20-7.8L78.4,87.4h0
	l0,0l0,0l0,0l0,0L74,85.3l-4.2-2l-4-2l-4-2l-3.8-2l-3.6-1.9l-18.6-9.9l-12.2-8.3l1.1-2.5l0,0c0,0,0,0,0,0l0,0v0v0l0,0l0,0v0l0,0l0,0
	l0,0c0.3-0.6,1.1-0.9,2.4-0.8l1.2,0l1.6,0.3l2,0.5l10,2.4l20,7.8l22.3,10.6h0l0,0l0,0l0,0l0,0l4.4,2.1l4.2,2l4,2l4,2l3.8,2l3.6,1.9
	l18.6,9.9l12.2,8.3L137.8,108.1L137.8,108.1z M137,107.8C137,107.8,137,107.8,137,107.8C137,107.8,137,107.8,137,107.8
	C137.1,107.8,137.1,107.8,137,107.8c0.9-2.1-11.1-10-29.3-19.7l-3.6-1.9l-3.8-2l-4-2l-4-2l-4.2-2l-4.3-2l0,0l0,0l0,0l0,0v0
	C61.5,65.5,41.6,57.7,31.6,55.3l-1.9-0.5l-1.5-0.3l-1.1,0l-1,0l-0.6,0.1l-0.1,0.3l0,0c0,0,0,0,0,0v0c0,0,0,0,0,0
	c-0.9,2,11.1,10,29.3,19.7l3.6,1.9l3.8,2l4,2l4,2l4.2,2l4.3,2l0,0l0,0l0,0l0,0v0c22.2,10.5,42.2,18.3,52.1,20.7l1.9,0.5l1.5,0.3
	l1.1,0l0.9,0l0.6-0.1L137,107.8L137,107.8z M137,107.8C137,107.8,137,107.8,137,107.8 M137,107.8C137,107.8,137,107.8,137,107.8
	 M24.7,54.6C24.7,54.6,24.7,54.6,24.7,54.6C24.7,54.6,24.7,54.6,24.7,54.6L24.7,54.6L24.7,54.6z M25.4,54.9L25.4,54.9 M24.7,54.6
	L24.7,54.6L24.7,54.6L24.7,54.6L24.7,54.6z M24.7,54.6L24.7,54.6C24.7,54.6,24.7,54.6,24.7,54.6L24.7,54.6L24.7,54.6z M24.7,54.6
	L24.7,54.6C24.7,54.6,24.7,54.6,24.7,54.6L24.7,54.6z M25.4,54.9L25.4,54.9"/>
<path class="st8" d="M125.2,125.9L125.2,125.9L125.2,125.9c-0.5,0.5-1.3,0.4-2.6,0c-1.1-0.4-2.5-1.2-4.2-2.3
	c-8.6-5.7-24.7-19.9-42-37.4l0,0c0,0,0,0,0,0l0,0C64.4,73.9,54,62.3,46.9,53.5c-7.2-9-11-15.2-9.6-16.6l0,0l0,0l0,0l0,0
	c0.5-0.5,1.3-0.4,2.6,0c1.1,0.4,2.5,1.2,4.2,2.3c8.6,5.7,24.7,19.9,42,37.4l0,0l0,0l0,0c2.8,2.8,5.5,5.6,8,8.3
	c2.6,2.7,5.1,5.4,7.4,7.9c12.1,13.2,20.8,24.2,23.3,29.5h0l0,0v0c0.1,0.2,0.2,0.4,0.3,0.7c0.1,0.2,0.2,0.4,0.2,0.6
	C125.7,124.7,125.7,125.4,125.2,125.9L125.2,125.9L125.2,125.9z M124.6,125.3L124.6,125.3L124.6,125.3L124.6,125.3
	c0.2-0.2,0.1-0.7-0.1-1.4c-0.1-0.2-0.1-0.4-0.2-0.5c-0.1-0.2-0.2-0.4-0.3-0.6l0,0l0,0v0c-2.5-5.2-11.2-16.1-23.2-29.3
	c-2.3-2.6-4.8-5.2-7.4-7.9c-2.6-2.7-5.3-5.5-8-8.3h0l0,0l0,0C68.1,59.7,52.1,45.6,43.5,39.9c-1.6-1.1-3-1.9-4-2.3
	c-0.9-0.4-1.5-0.4-1.7-0.2l0,0l0,0l0,0h0c-1.1,1,2.7,6.9,9.7,15.5C54.6,61.8,65,73.3,77,85.5l0,0c0,0,0,0,0,0v0c0,0,0,0,0,0l0,0
	c17.3,17.5,33.3,31.7,41.9,37.3c1.6,1.1,3,1.9,4,2.3C123.8,125.4,124.4,125.5,124.6,125.3L124.6,125.3z M77.1,85.5
	C77.1,85.5,77.1,85.5,77.1,85.5L77.1,85.5L77.1,85.5z"/>
<path class="st9" d="M125.7,37.3L125.7,37.3L125.7,37.3l0.2,0.2l0.1,0.2l0,0.3l0,0.2l0,0.3l-0.1,0.3l-0.2,1.3l-1.2,2.2l-2,2.9l0,0
	l0,0l0,0l-0.9,1.2l-1,1.4l-1.1,1.5l-1.2,1.5l-1.3,1.6l-1.4,1.7l-7.2,8.7L98,74.2L85.9,86.1h0l0,0h0l-2.2,2.2l-2.2,2.2l-2.2,2.1
	l-2.2,2.1l-2.1,2l-2.1,1.9l-10.8,10.1l-9.6,8.1l-6.5,4.6h0l0,0l0,0l-0.6,0.5l-0.6,0.4l-0.6,0.4l-0.6,0.4l-0.6,0.4l-0.5,0.3l-2.9,1.8
	l-2,0.6l-0.8-0.8h0l0,0l0,0l-0.2-0.2l-0.1-0.3l0-0.3l0-0.3l0-0.3l0.1-0.3l0.4-1.6l1.6-2.7l2.6-3.6l0,0l0,0l0.9-1.3l1.1-1.4l1.2-1.5
	l1.2-1.5l1.3-1.6l1.4-1.6l7.1-8.5l10-10.7l11.4-11.3l0,0l0,0h0l2.7-2.7l2.7-2.6l2.6-2.5l2.6-2.5l2.6-2.4l2.5-2.3l12.9-11.8l10.8-8.7
	l5.5-3l0,0l0,0l0,0l0,0c0,0,0,0,0,0c0,0,0,0,0,0c0,0,0,0,0,0c0,0,0,0,0,0c0,0,0,0,0,0c0,0,0,0,0,0c0,0,0,0,0,0h0c0,0,0,0,0,0
	c0,0,0,0,0,0c0,0,0,0,0,0c0,0,0,0,0,0 M125.1,37.9L125.1,37.9L125.1,37.9L125.1,37.9L125.1,37.9c-0.2-0.2-0.8-0.1-1.8,0.3l-0.2,0.1
	l-0.2,0.1l-0.2,0.1l-0.3,0.1l-0.3,0.1l-0.2,0.1l0,0l0,0l0.1-0.1l-0.1,0.1l0,0c-5.5,2.9-16.2,11.6-29,23.3l-2.5,2.3l-2.6,2.4
	l-2.6,2.5l-2.6,2.5l-2.7,2.6l-2.7,2.7l0,0l0,0h0L65.8,88.4l-9.9,10.7l-7.1,8.5l-1.4,1.7l-1.3,1.6l-1.1,1.4l-1.1,1.4l-1,1.4l-0.9,1.3
	l0,0h0l-2.5,3.5l-1.6,2.6l-0.4,1.5l-0.1,0.3l0,0.2l0,0.2l0,0.1l0,0.1l0.1,0.1l0,0l0,0v0l0,0l0,0l0,0c0.4,0.4,2.1-0.2,4.6-1.7
	l0.5-0.3l0.6-0.4l0.6-0.4l0.6-0.4l0.6-0.4l0.7-0.5h0l0,0v0l6.5-4.6l9.5-8l10.8-10l2.1-2l2.1-2l2.2-2.1l2.2-2.1l2.2-2.2l2.2-2.2v0
	l0,0h0l12-11.9l10.4-11.3l7.2-8.7l1.4-1.7l1.3-1.6l1.1-1.5l1.1-1.5l1-1.4l0.9-1.2h0l0,0l0,0l2-2.8l1.2-2.1l0.2-1.2l0-0.2l0-0.2
	l0-0.1l0-0.1L125.1,37.9L125.1,37.9L125.1,37.9z M125.7,37.3L125.7,37.3 M121.5,38.1c0.3-0.1,0.5-0.3,0.8-0.4l0.2-0.1l0.2-0.1
	l0.2-0.1l1.3-0.5l0.9,0l0.5,0.5"/>
<path class="st9" d="M137.3,55.6L137.3,55.6L137.3,55.6l-0.6-1.3l-6.8,1.6l-10.5,3.6L108.7,63l-14.4,5.8L78.8,76l0,0l0,0l0,0l0,0
	l0,0l0,0l0,0v0c-15.5,7.1-29.3,14.3-39.1,20l-9.6,5.6l-5.6,4.2l0.6,1.4l0,0l0,0 M138.1,55.2L138.1,55.2L138.1,55.2l1.1,2.5
	l-12.3,8.2l-18.7,9.7l-3.6,1.9l-3.8,1.9l-4,2l-4,2l-4.2,2l-4.4,2l0,0l0,0l0,0l0,0l0,0l0,0l0,0v0c-15.6,7.2-30,13-40.7,16.7
	l-10.9,3.7l-7.2,1.4l-0.8-1.8v0l0,0l0,0l0,0l-0.8-1.8l5.8-4.5l9.9-5.9l9.8-5.7l13.8-7.1l15.6-7.2l0,0l0,0l0,0l0,0l0,0l0,0l0,0l0,0
	c15.6-7.2,30-13,40.7-16.7l10.9-3.7l7.2-1.4L138.1,55.2L138.1,55.2L138.1,55.2z M137.3,55.6L137.3,55.6 M25.1,107.2L25.1,107.2
	L25.1,107.2l0.6,1.3l6.8-1.6l10.5-3.6l10.7-3.7l14.4-5.8l15.5-7.1l0,0l0,0l0,0l0,0l0,0l0,0l0,0v0c4.3-2,8.5-4,12.6-6l4-2l3.8-1.9
	l3.6-1.9l18.3-9.5l12.2-7.8l-0.9-2"/>
<path class="st9" d="M65.3,20.8L65.3,20.8L65.3,20.8l0.6-0.2l0.7,0.5l0.8,1l0.7,0.9l0.8,1.4l0.9,1.8l4.6,9.2l6.9,20.3l6.3,23.9l0,0
	l0,0l0,0c0,0,0,0,0,0c0,0,0,0,0,0l0,0l0,0c1.2,4.7,2.4,9.2,3.4,13.5l1,4.4l0.9,4.2l0.8,4l4.4,20.7l1.5,14.7l-2.6,0.7h0h0v0l-0.6,0.2
	l-0.7-0.5l-0.8-1l-0.7-0.9l-0.8-1.4l-0.9-1.8l-4.6-9.2L81,106.9l-6.3-23.9l0,0l0,0v0l0,0c-4.4-16.5-7.6-31.7-9.4-42.9l-1.8-11.4
	l-0.2-7.3L65.3,20.8L65.3,20.8L65.3,20.8L65.3,20.8L65.3,20.8z M65.5,21.6L65.5,21.6L65.5,21.6L65.5,21.6L65.5,21.6
	c-1.4,0.4-1.1,7.4,0.7,18.3l1.8,11.1l3.3,15.2l4.3,16.5l0,0l0,0l0,0l0,0l6.3,23.8l6.8,20.3l4.6,9.2l0.9,1.8l0.8,1.3l0.7,0.9l0.6,0.8
	l0.5,0.4l0.3-0.1v0l0,0v0l2.2-0.6l-1.7-14.3L93.1,106l-0.8-4l-0.9-4.2l-1-4.4L89.3,89l-1.1-4.5l-1.2-4.6l0,0l0,0l0,0l0,0l-6.3-23.8
	l-6.8-20.3l-4.6-9.2l-0.9-1.8l-0.8-1.3l-0.7-0.9l-0.6-0.8l-0.5-0.4L65.5,21.6L65.5,21.6L65.5,21.6z M87.7,79.7L87.7,79.7L87.7,79.7
	L87.7,79.7"/>
<path class="st9" d="M87,19L87,19L87,19l0.7,0.1l0.5,0.7l0.4,1.2l0.4,1.1l0.3,1.6l0.2,2L90.7,36l-0.5,21.4l-2.3,24.5
	c0-0.1,0-0.1,0,0.2l0,0l-1.6,17l-2.1,15.4L82,125.6l-2.2,11.3l-2.3,6.9l-2-0.1v0c0,0,0,0,0,0h0l0,0h0l-1.9-0.2l-1-7.2l-0.1-11.5
	l-0.1-11.3L73,98l1.6-17l0-0.2l0-0.3l-0.1,0.9l0.1-0.7l0,0l1.6-17l2.1-15.4l2.2-11.1l2.2-11.3l2.3-6.9L87,19L87,19
	C87,19,86.9,19,87,19L87,19L87,19z M86.9,19.9L86.9,19.9C86.9,19.9,86.9,19.9,86.9,19.9L86.9,19.9z M87.8,21.3l-0.3-0.9l-0.3-0.5
	l-0.3,0c0,0,0,0,0,0h0l-1.5-0.1l-2.1,6.7l-2.1,10.9l-2.2,11.1L77,63.7l-1.6,17h0l-0.1,0.6l0.1-0.9l0,0.4l0,0.2L73.8,98l-0.7,15.4
	l0.1,11.3l0.1,11l0.8,6.9l1.5,0.2c0,0,0,0,0,0h0l1.5,0.1l2.1-6.7l2.1-10.9l2.2-11.1L85.5,99l1.6-17h0l0.1-0.6L87,82.3l0-0.4
	l2.3-24.5l0.5-21.3l-1.2-10.2l-0.2-2l-0.3-1.5L87.8,21.3L87.8,21.3z"/>
<path class="st9" d="M108,24.8L108,24.8L108,24.8L108,24.8z M107.6,25.5L107.6,25.5C107.6,25.5,107.6,25.5,107.6,25.5
	C107.6,25.5,107.6,25.5,107.6,25.5C107.6,25.5,107.6,25.5,107.6,25.5L107.6,25.5c-1.4-0.6-5.6,5-11.3,14.4l-5.8,9.7l-7.3,13.7
	l-7.3,15.5l0,0l0,0l0,0l0,0l0,0l0,0l0,0l0,0l-7.3,15.5l-6,14.3l-3.8,10.6l-3.7,10.4l-1.6,6.8l1.3,0.6l0,0c0,0,0,0,0,0c0,0,0,0,0,0
	c2,0.9,10-11.1,19.7-29.4l1.9-3.6l2-3.8l2-4l2-4l2-4.2l2-4.3l0,0l0,0l0,0l0,0l0,0l0,0l0,0l0,0l7.3-15.5l6-14.3l3.8-10.6l3.7-10.4
	l1.6-6.8L107.6,25.5L107.6,25.5z M107.6,25.5C107.6,25.5,107.6,25.5,107.6,25.5 M107.6,25.5C107.6,25.5,107.6,25.5,107.6,25.5
	L107.6,25.5L107.6,25.5L107.6,25.5L107.6,25.5z M107.9,24.8L107.9,24.8C107.9,24.8,108,24.8,107.9,24.8L107.9,24.8L107.9,24.8
	L107.9,24.8L107.9,24.8L107.9,24.8c1.8,0.9,0.3,8-3.6,18.9l-3.8,10.7l-6,14.4l-7.3,15.5l0,0v0l0,0h0c0,0,0,0,0,0s0,0,0,0
	c0,0,0,0,0,0s0,0,0,0 M107.9,24.8L107.9,24.8 M107.6,25.5L107.6,25.5 M87.3,84.2C87.3,84.2,87.3,84.2,87.3,84.2L87.3,84.2L87.3,84.2
	L87.3,84.2L87.3,84.2l-2.1,4.4l-2,4.2l-2,4l-2,4l-2,3.8l-1.9,3.6l-9.9,18.6L57,139l-2.5-1.1l0,0c0,0,0,0,0,0l0,0l0,0l0,0v0h0l0,0
	l0,0l0,0l0,0l0,0l0,0l0,0l0,0c-1.8-0.9-0.3-8,3.6-18.9l3.8-10.7l6-14.4l7.3-15.5l0,0l0,0l0,0l0,0l0,0l0,0l0,0l0,0L82.5,63l7.3-13.8
	l5.8-9.7l5.9-9.9l4.6-5.7l1.8,0.8l0,0 M54.5,137.9C54.5,137.9,54.5,137.9,54.5,137.9C54.5,137.9,54.5,137.9,54.5,137.9L54.5,137.9
	L54.5,137.9z M54.5,137.9L54.5,137.9L54.5,137.9 M54.9,137.2C54.9,137.2,54.9,137.2,54.9,137.2 M54.9,137.2L54.9,137.2"/>
<path class="st9" d="M143.6,76.2L143.6,76.2L143.6,76.2L143.6,76.2C143.6,76.2,143.6,76.2,143.6,76.2L143.6,76.2l0,0.7l-0.6,0.6
	l-1.2,0.6l-1,0.6l-1.5,0.6l-1.9,0.6l-9.9,2.9L106.3,86l-24.5,2l0,0h0c0,0-0.1,0-0.2,0l-4.8,0.4l-4.7,0.3L67.7,89l-4.5,0.3l-4.3,0.2
	l-4.1,0.1l-21.1,0.7l-14.7-1.1l-0.2-2.7l0,0v0v0l0,0l0-0.7l0.6-0.6l1.2-0.6l1-0.6l1.5-0.6l1.9-0.6l9.9-2.9l21.2-3.2l24.5-2l0,0h0h0
	l0,0l0,0l0,0 M142.8,76.3L142.8,76.3L142.8,76.3L142.8,76.3L142.8,76.3L142.8,76.3L142.8,76.3L142.8,76.3L142.8,76.3z M142.8,76.3
	C142.8,76.3,142.8,76.3,142.8,76.3L142.8,76.3L142.8,76.3z M142.8,76.3C142.8,76.3,142.8,76.3,142.8,76.3L142.8,76.3l-0.2-2.2
	l-14.4-0.8l-20.6,0.7l-4,0.1l-4.3,0.2l-4.5,0.3l-4.5,0.3l-4.7,0.3l-4.8,0.4l0,0l-0.1,0l-0.1,0h0l-24.5,2l-21.1,3.2l-9.8,2.9
	l-1.9,0.6l-1.5,0.5l-1,0.5l-0.9,0.5l-0.4,0.4l0,0.3v0l0,0c0,0,0,0,0,0v0l0.2,2.2l14.4,0.8l20.6-0.7l4-0.1l4.3-0.2l4.5-0.3l4.5-0.3
	l4.6-0.3l4.8-0.4l0,0l0.1,0l0.1,0h0l24.5-2l21.1-3.2l9.8-2.9l1.9-0.6l1.5-0.5l1-0.5l0.9-0.5l0.4-0.4L142.8,76.3L142.8,76.3
	L142.8,76.3L142.8,76.3z M143.6,76.2L143.6,76.2 M81.8,88L81.8,88L81.8,88L81.8,88L81.8,88 M19.7,86.4L19.7,86.4
	C19.7,86.4,19.7,86.4,19.7,86.4L19.7,86.4L19.7,86.4L19.7,86.4L19.7,86.4L19.7,86.4L19.7,86.4z M19.7,86.4L19.7,86.4
	C19.7,86.4,19.7,86.4,19.7,86.4L19.7,86.4z M80.7,74.7L80.7,74.7c0,0,0.1,0,0.2,0l4.8-0.4l4.7-0.3l4.5-0.3l4.5-0.3l4.3-0.2l4.1-0.1
	l21.1-0.7l14.7,1.1l0.2,2.7"/>
<path class="st9" d="M141.6,97.9L141.6,97.9L141.6,97.9l-0.2,0.6l-0.8,0.4l-1.3,0.2l-1.2,0.2l-1.6,0l-2-0.1l-10.3-0.6l-21-4.2
	l-23.8-6.5l0,0h0l0,0l0,0h0l-16.5-4.5l-14.8-4.8l-10.6-4.1l-10.8-4.1l-6.4-3.5l0.5-1.9v0l0,0l0,0l0,0l0.2-0.6l0.8-0.4l1.3-0.2
	l1.2-0.2l1.6,0l2,0.1l10.3,0.6l21,4.2L83,74.9l0,0l0,0l0,0l0,0h0l16.5,4.5l14.8,4.8l10.6,4.1l10.8,4.1l6.4,3.5L141.6,97.9
	L141.6,97.9L141.6,97.9L141.6,97.9z M140.8,97.7L140.8,97.7L140.8,97.7L140.8,97.7L140.8,97.7c0.4-1.4-5.8-4.6-16.2-8.6L114.1,85
	l-14.8-4.8l-16.5-4.5l0,0c0,0,0,0-0.1,0v0l-23.7-6.5l-21-4.2l-10.2-0.6l-2-0.1l-1.6,0l-1.1,0.2l-0.9,0.1l-0.5,0.2L21.7,65l0,0l0,0
	l0,0l0,0c-0.4,1.4,5.8,4.6,16.2,8.6l10.5,4.1l14.8,4.8L79.6,87l0,0c0,0,0,0,0.1,0v0l23.7,6.5l21,4.2l10.2,0.6l2,0.1l1.6,0l1.1-0.2
	l0.9-0.1l0.5-0.2L140.8,97.7L140.8,97.7z"/>
<path class="st9" d="M132.3,117.5L132.3,117.5L132.3,117.5L132.3,117.5C132.3,117.5,132.3,117.5,132.3,117.5
	C132.3,117.6,132.3,117.6,132.3,117.5C132.3,117.6,132.3,117.6,132.3,117.5C132.3,117.6,132.3,117.6,132.3,117.5
	c-0.4,0.6-1.3,0.7-2.5,0.4l-1.1-0.2l-1.5-0.5l-1.9-0.8l-9.4-4.1l-18.3-11.2L77.4,86.8l0,0l0,0l0,0l0,0h0v0v0v0h0l0,0l0,0
	c0,0,0,0,0,0v0l0,0c0,0,0,0,0,0c0,0,0,0,0,0 M131.6,117.1C131.6,117.1,131.6,117.1,131.6,117.1L131.6,117.1
	C131.6,117.1,131.6,117.1,131.6,117.1L131.6,117.1z M129.9,117.1l0.9,0.2l0.6,0l0.2-0.2v0l0,0l0,0l0,0l0,0
	c0.8-1.2-3.9-6.4-12.3-13.6l-8.5-7.4l-12.3-9.6l-13.9-9.9v0l0,0l0,0l0,0c0,0,0,0,0,0l0,0l-13.9-9.9l-13.1-8.4l-9.8-5.6l-9.6-5.5
	l-6.4-2.8l-0.9,1.2l0,0l0,0l0,0l0,0c0,0,0,0,0,0c0,0,0,0,0,0s0,0,0,0C30,46.9,34.8,52,43.1,59.3l8.5,7.4l12.2,9.5l13.9,9.9l0,0l0,0
	l-0.1,0l0,0l0,0l20.1,14.2l18.3,11.2l9.4,4.1l1.8,0.8l1.5,0.5L129.9,117.1L129.9,117.1z M77.4,86.8L77.4,86.8
	C77.4,86.8,77.4,86.8,77.4,86.8L77.4,86.8z M77.4,86.8C77.4,86.8,77.4,86.8,77.4,86.8 M77.4,86.8C77.4,86.8,77.4,86.8,77.4,86.8
	L77.4,86.8l-14-9.9l-12.3-9.6l-8.5-7.4l-8.7-7.6l-4.8-5.5l1.1-1.6l0,0c0,0,0,0,0,0l0,0l0,0l0,0c1.3-1.5,8,1.2,17.9,6.9l9.8,5.6
	L71.1,66l14,9.9l0,0l0,0l0,0l0,0c0,0,0,0,0,0l0,0l14,9.9l12.3,9.6l8.5,7.4l8.7,7.6l4.8,5.5l-1.1,1.6c0,0,0,0,0,0 M30.2,45.2
	C30.2,45.2,30.2,45.2,30.2,45.2C30.2,45.2,30.2,45.2,30.2,45.2L30.2,45.2L30.2,45.2z M30.9,45.6C30.9,45.6,30.9,45.6,30.9,45.6
	 M30.9,45.6C30.9,45.6,30.9,45.6,30.9,45.6 M85.1,75.9C85.1,75.9,85.1,75.9,85.1,75.9C85.1,75.9,85.1,75.9,85.1,75.9L85.1,75.9z
	 M84.6,76.6L84.6,76.6L84.6,76.6L84.6,76.6C84.6,76.6,84.6,76.6,84.6,76.6L84.6,76.6z M84.6,76.6C84.6,76.6,84.6,76.6,84.6,76.6
	C84.6,76.6,84.6,76.6,84.6,76.6L84.6,76.6z M84.6,76.6C84.6,76.6,84.6,76.6,84.6,76.6C84.6,76.6,84.6,76.6,84.6,76.6L84.6,76.6z"/>
<path class="st9" d="M116.8,132.8L116.8,132.8L116.8,132.8c-0.5,0.4-1.4,0.2-2.5-0.5c-1-0.6-2.2-1.6-3.7-3
	c-7.5-7.1-20.8-23.9-34.9-44.2c0,0,0,0.1,0,0h0C66,71,57.7,57.9,52.3,47.9C46.7,37.8,44,31,45.7,29.9l0,0l0,0l0,0l0,0
	c1.6-1.1,7.1,3.8,14.6,12.6c7.3,8.6,16.8,21,26.5,35.1l0,0l0,0l0,0v0c2,2.8,3.9,5.6,5.7,8.4c1.8,2.8,3.6,5.4,5.3,8
	c8.6,13.4,15.1,24.9,18,31.8l0,0c0.2,0.5,0.4,1,0.6,1.5c0.2,0.5,0.3,0.9,0.5,1.3C117.5,130.8,117.6,132.3,116.8,132.8L116.8,132.8
	L116.8,132.8z M116.3,132.2L116.3,132.2L116.3,132.2c0.4-0.3,0.3-1.5-0.4-3.3c-0.1-0.4-0.3-0.8-0.5-1.3c-0.2-0.5-0.4-1-0.6-1.5l0,0
	c-2.9-6.8-9.3-18.2-17.9-31.6c-1.7-2.6-3.4-5.3-5.3-8c-1.8-2.7-3.7-5.5-5.7-8.4v0l0,0v0l0,0c-9.7-14.1-19.1-26.4-26.4-35
	c-7.2-8.4-12.3-13.3-13.5-12.4l0,0l0,0c0,0,0,0,0,0l0,0l0,0c-1.2,0.9,1.5,7.3,6.9,17c5.5,9.9,13.7,23.1,23.4,37.1l0,0c0,0,0,0,0,0
	c0,0,0,0,0,0c0,0,0,0,0,0c14,20.2,27.3,37,34.7,44c1.4,1.4,2.6,2.3,3.6,2.9C115.5,132.2,116.1,132.3,116.3,132.2L116.3,132.2
	L116.3,132.2z M76.4,84.7C76.4,84.7,76.4,84.7,76.4,84.7 M76.4,84.7C76.4,84.7,76.4,84.7,76.4,84.7 M46.1,30.6L46.1,30.6"/>
<radialGradient id="SVGID_2_" cx="253.8628" cy="-1772.0076" r="72.7816" gradientTransform="matrix(0.8197 0 0 -0.8197 -127.8772 -1371.3711)" gradientUnits="userSpaceOnUse">
	<stop  offset="0" style="stop-color:#FFFFFF"/>
	<stop  offset="0.12" style="stop-color:#FFFFFF"/>
	<stop  offset="0.29" style="stop-color:#89C651"/>
	<stop  offset="0.42" style="stop-color:#2D6B3B"/>
	<stop  offset="0.5987" style="stop-color:#1B3A25"/>
	<stop  offset="1" style="stop-color:#253426"/>
</radialGradient>
<path class="st10" d="M76.8,35c4-5.3,8.7-10.2,13.5-12.3c7.8-3.3,15.2,0.6,15.9,9c0.4,4.4-1.1,9.2-3.5,12.3
	c-3.5,4.5-10,7.9-13.6,10.8c-2.7,2.2-2.9,3.2-3.3,6.4c-0.3,2.4-0.4,4.8-0.4,7.4c-1.9,1.3-3.8,2.7-5.7,4c-0.1-3.9,0-7.7,0.3-11.4
	c0.2-2.2,0.5-4.1,0.9-5.5c0.8-2.5,2.2-3.9,5.5-6.2c3.3-2.4,7.8-5.2,10.6-7.7c2.5-2.3,4.8-5.6,5.3-9c0.4-2.5-0.3-4.9-1.7-6.4
	c-1.3-1.3-3.3-2-5.7-1.5c-1.6,0.3-3.3,1.1-4.6,2.2c-3.2,2.6-6,7-9,12.2C79.9,38.1,78.3,36.4,76.8,35L76.8,35z M73.9,85l1.5,1.9
	l-6.5,3.3c2,2.2,3.4,4.8,5.1,7.4c-1.8,0.6-3,1.2-4.8,1.8c-0.5-2.7-1.4-5-3.4-7.7l-11.4,5.8c1.8,5.5,3.2,11.6-4.3,14.1
	c-6.2,2-11.3-0.3-15.3-4.1l-7.5,3.8l-1.5-1.9l7.3-3.7c-3-3.5-5.3-7.6-6.8-11.7c1.7-0.1,3.5-0.2,5.2-0.3c0.5,3.3,1.3,6.9,4.1,10.6
	c0,0,0.1,0.1,0.1,0.1l12.4-6.3c-1.8-5.1-3.1-10.6,4-12.8c4.3-1.4,10.5-0.8,15,3.2L73.9,85L73.9,85z M48.9,100.3l-11.5,5.9
	c3,2.7,7,3.8,10.3,2.8C51.3,107.8,50.3,104.3,48.9,100.3L48.9,100.3z M53.6,95.3l10.5-5.3c-2.4-2.1-6.4-3.4-10-2.2
	C51.5,88.6,52.4,91.6,53.6,95.3L53.6,95.3z M82.7,88.6l1.8-1.6l3.8,6.2c2-2.1,4.6-3.8,7-5.6c0.8,1.7,1.4,2.9,2.2,4.6
	c-2.6,0.7-4.9,1.8-7.4,3.9l6.6,10.9c5.3-2.2,11.4-4.1,14.3,3.3c2.4,6,0.6,11.3-3,15.6l4.3,7.2l-1.8,1.6l-4.2-7
	c-3.2,3.3-7.2,5.8-11.2,7.6c-0.2-1.7-0.5-3.5-0.7-5.2c3.3-0.8,6.8-1.8,10.3-4.9c0,0,0.1-0.1,0.1-0.1l-7.2-11.9
	c-5,2.2-10.3,3.8-13.1-3c-1.7-4.1-1.5-10.5,2.1-15.2L82.7,88.6L82.7,88.6z M99.8,112.3l6.7,11.1c2.4-3.2,3.3-7.3,2-10.5
	C107.1,109.4,103.7,110.6,99.8,112.3L99.8,112.3z M94.4,108.1L88.3,98c-1.9,2.6-2.9,6.6-1.5,10.1C87.9,110.6,90.8,109.6,94.4,108.1
	L94.4,108.1z M86.6,76.8l-1.5-1.9l6.5-3.2l0,0c-1.9-2.2-3.4-4.9-4.9-7.5c1.8-0.6,3-1.1,4.8-1.7c0.4,2.7,1.3,5,3.3,7.7l11.5-5.6
	c-1.7-5.5-3.1-11.7,4.5-14c6.2-1.9,11.3,0.4,15.2,4.3l7.6-3.7l1.5,1.9l-7.3,3.6c3,3.5,5.2,7.7,6.6,11.8c-1.7,0.1-3.5,0.2-5.2,0.3
	c-0.5-3.3-1.2-6.9-4-10.6c0,0-0.1-0.1-0.1-0.1l-12.5,6.1c1.7,5.2,2.9,10.6-4.2,12.8c-4.3,1.3-10.6,0.6-15-3.4L86.6,76.8L86.6,76.8z
	 M111.8,61.8l11.6-5.7c-3-2.7-7-4-10.3-2.9C109.5,54.3,110.4,57.8,111.8,61.8L111.8,61.8z M107.1,66.8L96.5,72
	c2.4,2.1,6.3,3.5,9.9,2.4C109,73.6,108.2,70.5,107.1,66.8L107.1,66.8z M77.7,74l-1.8,1.6l-3.7-6.3c-2.1,2.1-4.6,3.7-7.1,5.5
	c-0.8-1.7-1.4-2.9-2.1-4.7c2.6-0.6,4.9-1.7,7.4-3.8l-6.5-11c-5.4,2.2-11.4,4-14.3-3.4c-2.4-6-0.4-11.3,3.1-15.5l-4.3-7.2l1.8-1.6
	l4.1,7c3.3-3.2,7.3-5.7,11.3-7.5c0.2,1.7,0.4,3.5,0.7,5.2C63,33,59.5,34,56,37c0,0-0.1,0.1-0.1,0.1l7.1,12c5-2.1,10.4-3.7,13.1,3.2
	c1.6,4.2,1.4,10.5-2.2,15.2L77.7,74L77.7,74z M60.8,50.1L54.2,39c-2.5,3.2-3.4,7.2-2.1,10.5C53.5,53,56.9,51.8,60.8,50.1L60.8,50.1z
	 M66.1,54.4l6,10.1C74,62,75,58,73.7,54.5C72.7,52,69.7,53,66.1,54.4L66.1,54.4z M126.3,78.5c5.2,4.1,10.1,8.8,12.1,13.7
	c3.2,7.9-0.8,15.2-9.2,15.8c-4.4,0.3-9.2-1.2-12.2-3.7c-4.4-3.6-7.7-10.1-10.7-13.7c-2.2-2.7-3.1-2.9-6.4-3.4
	c-2.4-0.4-4.8-0.5-7.4-0.4c-1.3-1.9-2.6-3.8-3.9-5.7c3.9,0,7.7,0.1,11.4,0.5c2.2,0.2,4.1,0.5,5.5,1c2.5,0.8,3.8,2.3,6.1,5.6
	c2.4,3.4,5.1,7.9,7.6,10.7c2.3,2.5,5.5,4.9,8.9,5.4c2.5,0.4,4.9-0.2,6.4-1.7c1.3-1.3,2-3.2,1.5-5.7c-0.3-1.6-1.1-3.3-2.2-4.6
	c-2.5-3.2-6.9-6.1-12.1-9.2C123.1,81.5,124.9,80,126.3,78.5L126.3,78.5z M82.9,127.5c-4,5.2-8.8,10.2-13.7,12.2
	c-7.8,3.2-15.2-0.7-15.8-9.2c-0.3-4.4,1.2-9.2,3.6-12.2c3.6-4.4,10.1-7.8,13.7-10.7c2.7-2.2,2.9-3.1,3.4-6.4
	c0.3-2.4,0.5-4.8,0.4-7.4c1.9-1.3,3.8-2.6,5.7-3.9c0,3.9-0.1,7.7-0.4,11.4c-0.2,2.2-0.5,4.1-1,5.5c-0.8,2.5-2.3,3.8-5.6,6.2
	c-3.4,2.4-7.9,5.1-10.7,7.6c-2.5,2.3-4.8,5.5-5.4,9c-0.4,2.5,0.2,4.9,1.7,6.4c1.3,1.3,3.2,2,5.7,1.5c1.6-0.3,3.3-1.1,4.6-2.2
	c3.2-2.6,6.1-6.9,9.1-12.1C79.9,124.4,81.4,126.1,82.9,127.5L82.9,127.5z M35,84.7c-5.4-3.8-10.5-8.4-12.7-13.1
	c-3.6-7.7,0.1-15.2,8.5-16.2c4.4-0.5,9.2,0.8,12.4,3.1c4.6,3.4,8.2,9.7,11.3,13.2c2.3,2.6,3.3,2.8,6.5,3.1c2.4,0.2,4.9,0.3,7.4,0.1
	c1.4,1.9,2.8,3.7,4.2,5.6c-3.9,0.2-7.7,0.2-11.4,0c-2.2-0.1-4.1-0.3-5.5-0.7c-2.5-0.7-3.9-2.1-6.4-5.3c-2.5-3.3-5.4-7.7-8-10.3
	c-2.4-2.4-5.7-4.6-9.2-5c-2.5-0.3-4.9,0.4-6.3,1.9c-1.3,1.3-1.9,3.3-1.3,5.8c0.4,1.6,1.2,3.2,2.4,4.5c2.7,3.1,7.2,5.8,12.5,8.6
	C38,81.5,36.3,83.1,35,84.7L35,84.7z"/>
<path class="st11" d="M102.4,44.4c-0.7,0.8-1.5,1.6-2.3,2.4c-1.8-1.1-3.7-2-5.6-2.7c1-0.7,1.9-1.5,2.7-2.2c0,0,0.1-0.1,0.1-0.1
	C99,42.5,100.7,43.4,102.4,44.4L102.4,44.4z M82.2,38.2c-0.3,0.4-0.5,0.9-0.8,1.3c-0.5-0.4-0.9-0.9-1.4-1.4c0,0,0,0,0,0
	C80.7,38.1,81.5,38.1,82.2,38.2L82.2,38.2z M110.3,50.7c0.8,0.8,1.7,1.7,2.4,2.6c-1.3,0.5-1.9,1.4-2.1,2.5c-1-1.3-2.1-2.4-3.3-3.6
	C108.1,51.7,109.1,51.1,110.3,50.7L110.3,50.7z M117,59.3c0.4,0.7,0.8,1.4,1.2,2.1l-2.9,1.4c-0.4-0.7-0.8-1.4-1.2-2.1L117,59.3
	L117,59.3z M122.9,81.8c0,0.6,0,1.2-0.1,1.8c-0.4-0.2-0.7-0.4-1.1-0.6C122.1,82.6,122.5,82.2,122.9,81.8L122.9,81.8z M119.1,98.7
	c-0.8,1.8-1.7,3.5-2.8,5.1c-0.8-0.7-1.6-1.5-2.3-2.4c1.1-1.8,2-3.7,2.8-5.6C117.6,96.8,118.4,97.8,119.1,98.7L119.1,98.7z
	 M111,110.6c-0.8,0.8-1.6,1.7-2.5,2.4c0,0,0-0.1,0-0.1c-0.5-1.3-1.3-1.9-2.3-2.2c1.1-1,2.2-2,3.2-3.1c0.6,0.7,1.1,1.6,1.6,2.8
	C111,110.4,111,110.5,111,110.6L111,110.6z M102.8,117.3c-0.7,0.4-1.4,0.8-2.1,1.2l-1.7-2.8c0.7-0.4,1.4-0.8,2.1-1.2L102.8,117.3
	L102.8,117.3z M79.3,123.9c-0.5,0-1,0-1.5,0c0.2-0.3,0.3-0.6,0.5-0.9C78.7,123.3,79,123.6,79.3,123.9L79.3,123.9z M62.8,120.3
	c-1.8-0.8-3.5-1.7-5.2-2.7c0.7-0.8,1.5-1.6,2.4-2.3c1.8,1.1,3.7,2,5.7,2.8C64.7,118.8,63.7,119.5,62.8,120.3L62.8,120.3z
	 M50.1,111.6c-0.9-0.8-1.7-1.7-2.5-2.6c0,0,0.1,0,0.1,0c1.3-0.4,2-1.1,2.3-2.1c1,1.1,2,2.2,3.1,3.2
	C52.3,110.7,51.3,111.2,50.1,111.6C50.1,111.6,50.1,111.6,50.1,111.6L50.1,111.6z M43.3,103.2c-0.4-0.7-0.8-1.4-1.2-2.1l2.9-1.5
	c0.4,0.7,0.8,1.4,1.2,2.1L43.3,103.2L43.3,103.2z M37.2,82.3c0-0.4,0-0.9,0-1.3c0-0.7,0-1.5,0.1-2.2c0.7,0.4,1.4,0.8,2.1,1.2
	C38.7,80.8,37.9,81.5,37.2,82.3L37.2,82.3z M40.8,63.7c0.8-1.7,1.7-3.4,2.6-5.1c0.8,0.6,1.7,1.4,2.4,2.2c-1,1.7-1.9,3.6-2.7,5.5
	c-0.7-0.8-1.3-1.5-1.9-2.2C41.1,64,40.9,63.9,40.8,63.7L40.8,63.7z M49.3,51.1c0.8-0.8,1.7-1.6,2.5-2.4c0.1,0.2,0.2,0.5,0.2,0.7
	c0.4,1,0.9,1.6,1.6,1.9c-1,0.9-2,1.9-2.9,2.9c-0.4-0.6-0.8-1.4-1.2-2.3C49.5,51.7,49.4,51.4,49.3,51.1L49.3,51.1z M57.5,44.5
	c0.7-0.4,1.4-0.8,2.1-1.2l1.6,2.8c-0.7,0.4-1.4,0.8-2.1,1.2L57.5,44.5L57.5,44.5z"/>
<path class="st5" d="M28.5,87.4v-0.3c0.2-0.1,0.4-0.1,0.5-0.2c0.1-0.1,0.1-0.2,0.1-0.4v-9.4c0-0.2,0-0.4-0.1-0.4
	c-0.1-0.1-0.2-0.1-0.5-0.2v-0.3h4.6v0.3c-0.2,0.1-0.4,0.1-0.5,0.2c-0.1,0.1-0.1,0.2-0.1,0.4v9.4c0,0.2,0,0.3,0.1,0.4
	c0.1,0.1,0.2,0.1,0.5,0.2v0.3H28.5L28.5,87.4z M48.1,84.7c0.2,0,0.4,0,0.4-0.1c0.1-0.1,0.2-0.2,0.2-0.4h0.3v3.7h-0.3
	c-0.1-0.2-0.1-0.4-0.2-0.4c-0.1-0.1-0.2-0.1-0.4-0.1H36.7v-0.3c0.2-0.1,0.4-0.1,0.5-0.2c0.1-0.1,0.1-0.2,0.1-0.4v-9.4
	c0-0.2,0-0.4-0.1-0.4c-0.1-0.1-0.2-0.1-0.5-0.2v-0.3h4.6v0.3c-0.2,0.1-0.4,0.1-0.5,0.2c-0.1,0.1-0.1,0.2-0.1,0.4v7.7L48.1,84.7
	L48.1,84.7z M61.4,84.7c0.2,0,0.4,0,0.4-0.1c0.1-0.1,0.2-0.2,0.2-0.4h0.3v3.7h-0.3c-0.1-0.2-0.1-0.4-0.2-0.4
	c-0.1-0.1-0.2-0.1-0.4-0.1H50v-0.3c0.2-0.1,0.4-0.1,0.5-0.2c0.1-0.1,0.1-0.2,0.1-0.4v-9.4c0-0.2,0-0.4-0.1-0.4
	c-0.1-0.1-0.2-0.1-0.5-0.2v-0.3h4.6v0.3c-0.2,0.1-0.4,0.1-0.5,0.2C54,76.7,54,76.9,54,77.1v7.7L61.4,84.7L61.4,84.7z M64.3,87.4
	v-0.3c0.2-0.1,0.4-0.1,0.5-0.2c0.1-0.1,0.1-0.2,0.1-0.4v-9.4c0-0.2,0-0.4-0.1-0.4c-0.1-0.1-0.2-0.1-0.5-0.2v-0.3h4.6v0.3
	c-0.2,0.1-0.4,0.1-0.5,0.2c-0.1,0.1-0.1,0.2-0.1,0.4v9.4c0,0.2,0,0.3,0.1,0.4c0.1,0.1,0.2,0.1,0.5,0.2v0.3H64.3L64.3,87.4z
	 M80.9,87.6c-2.1,0-3.9-0.6-5.3-1.7c-1.4-1.1-2.1-2.6-2.1-4.3c0-1.7,0.7-3.2,2.1-4.3c1.4-1.1,3.1-1.7,5.3-1.7c2.1,0,3.9,0.6,5.3,1.7
	c1.4,1.1,2.1,2.6,2.1,4.3c0,1.7-0.7,3.2-2.1,4.3C84.7,87,83,87.6,80.9,87.6L80.9,87.6z M77.2,81.6c0,1,0.3,1.8,1,2.4
	c0.7,0.6,1.6,0.9,2.7,0.9c1.1,0,2-0.3,2.7-0.9c0.7-0.6,1-1.4,1-2.4c0-1-0.3-1.8-1-2.4c-0.7-0.6-1.6-0.9-2.7-0.9
	c-1.1,0-2,0.3-2.7,0.9C77.5,79.8,77.2,80.6,77.2,81.6L77.2,81.6z M92.7,86.5c0,0.2,0,0.4,0.1,0.4c0.1,0.1,0.2,0.1,0.5,0.2v0.3h-4.1
	v-0.3c0.2-0.1,0.4-0.1,0.5-0.2s0.1-0.2,0.1-0.4v-9.4c0-0.2,0-0.4-0.1-0.4c-0.1-0.1-0.2-0.1-0.5-0.2v-0.3h5.3v0.3
	c-0.1,0-0.3,0.1-0.3,0.2s-0.1,0.1-0.1,0.2c0,0.1,0.1,0.2,0.3,0.4c0,0,0.1,0.1,0.1,0.1l5.1,5.2v-5.4c0-0.2,0-0.3-0.1-0.4
	c-0.1-0.1-0.2-0.1-0.5-0.2v-0.3h4.1v0.3c-0.2,0.1-0.4,0.1-0.5,0.2c-0.1,0.1-0.1,0.2-0.1,0.4v9.4c0,0.2,0,0.3,0.1,0.4
	c0.1,0.1,0.2,0.1,0.5,0.2v0.3h-4.4v-0.3c0.1,0,0.3-0.1,0.3-0.1c0.1-0.1,0.1-0.1,0.1-0.2c0-0.1-0.1-0.2-0.3-0.5c0,0,0,0,0,0l-6-6.2
	L92.7,86.5L92.7,86.5L92.7,86.5L92.7,86.5z M109,83.1h4l-2.1-4.9L109,83.1L109,83.1z M114,87.4v-0.3c0.1,0,0.3-0.1,0.3-0.1
	c0.1-0.1,0.1-0.1,0.1-0.2c0-0.1,0-0.1,0-0.2c0-0.1-0.1-0.2-0.1-0.3l-0.5-1.2h-5.6l-0.5,1.2c0,0.1-0.1,0.1-0.1,0.2c0,0.1,0,0.1,0,0.2
	c0,0.1,0,0.2,0.1,0.3c0.1,0.1,0.2,0.1,0.4,0.2v0.3H104v-0.3c0.4-0.2,0.7-0.7,1-1.4c0-0.1,0.1-0.1,0.1-0.2l3.2-8.1
	c0.1-0.2,0.1-0.3,0.1-0.4c0-0.1,0.1-0.2,0.1-0.3c0-0.1,0-0.2-0.1-0.2c-0.1-0.1-0.1-0.1-0.3-0.1v-0.3h6v0.3c-0.1,0-0.2,0-0.3,0.1
	c-0.1,0.1-0.1,0.1-0.1,0.2c0,0,0,0.1,0.1,0.3c0,0.1,0.1,0.3,0.2,0.4l3.8,9c0,0,0,0,0,0c0.1,0.3,0.3,0.5,0.6,0.6v0.3L114,87.4
	L114,87.4C114,87.4,114,87.4,114,87.4z M119.9,87.4v-0.3c0.2-0.1,0.4-0.1,0.5-0.2c0.1-0.1,0.1-0.2,0.1-0.4v-9.4c0-0.2,0-0.4-0.1-0.4
	c-0.1-0.1-0.2-0.1-0.5-0.2v-0.3h4.6v0.3c-0.2,0.1-0.4,0.1-0.5,0.2c-0.1,0.1-0.1,0.2-0.1,0.4v9.4c0,0.2,0,0.3,0.1,0.4
	c0.1,0.1,0.2,0.1,0.5,0.2v0.3H119.9L119.9,87.4z M127.7,87.4v-0.3c0.2-0.1,0.4-0.1,0.5-0.2c0.1-0.1,0.1-0.2,0.1-0.4v-9.4
	c0-0.2,0-0.4-0.1-0.4c-0.1-0.1-0.2-0.1-0.5-0.2v-0.3h8.4c1.5,0,2.7,0.3,3.5,0.9c0.8,0.6,1.3,1.5,1.3,2.6c0,0.9-0.3,1.6-0.8,2.2
	c-0.5,0.6-1.3,1-2.3,1.3l1.8,2.6c0.3,0.5,0.6,0.8,0.8,1s0.4,0.3,0.6,0.3v0.3h-4.8l0-0.3c0.1,0,0.2-0.1,0.3-0.1
	c0.1-0.1,0.1-0.1,0.1-0.2c0-0.1-0.1-0.2-0.2-0.4c-0.1-0.1-0.1-0.1-0.1-0.2l-2-2.9h-2.5v3.2c0,0.2,0,0.3,0.1,0.4
	c0.1,0.1,0.2,0.1,0.5,0.2v0.3L127.7,87.4L127.7,87.4L127.7,87.4L127.7,87.4z M131.7,78.4V81h3c0.9,0,1.6-0.1,2-0.3
	c0.4-0.2,0.6-0.5,0.6-1c0-0.5-0.2-0.8-0.6-1c-0.4-0.2-1.1-0.3-2.2-0.3H131.7L131.7,78.4z M153.2,84.7c0.2,0,0.4,0,0.4-0.1
	c0.1-0.1,0.2-0.2,0.2-0.4h0.3v3.7h-0.3c-0.1-0.2-0.1-0.4-0.2-0.4c-0.1-0.1-0.2-0.1-0.4-0.1h-10.9v-0.3c0.2-0.1,0.4-0.1,0.5-0.2
	c0.1-0.1,0.1-0.2,0.1-0.4v-9.4c0-0.2,0-0.4-0.1-0.4c-0.1-0.1-0.2-0.1-0.5-0.2v-0.3h10.9c0.2,0,0.4,0,0.4-0.1
	c0.1-0.1,0.1-0.2,0.2-0.4h0.3v3.7h-0.3c-0.1-0.2-0.1-0.4-0.2-0.4c-0.1-0.1-0.2-0.1-0.4-0.1h-6.9v1.6h4.2c0.2,0,0.4,0,0.5-0.1
	c0.1-0.1,0.2-0.2,0.2-0.4h0.3v3.5h-0.3c-0.1-0.2-0.1-0.4-0.2-0.4c-0.1-0.1-0.2-0.1-0.5-0.1h-4.2v1.9L153.2,84.7L153.2,84.7
	L153.2,84.7z M21.7,84.6c0.2,0,0.3,0,0.4-0.1c0.1-0.1,0.1-0.2,0.2-0.5h0.3v3.3l-11.2,0V83l5.2-2.4l6.2,0.1l-7.9,4H21.7L21.7,84.6z
	 M12.5,78.9c-0.2,0-0.3,0-0.4,0.1c-0.1,0.1-0.1,0.2-0.2,0.5h-0.3v-3.3l11.2,0v4.4L17.6,83l-6.2-0.1l7.9-4H12.5L12.5,78.9z"/>
<path class="st6" d="M28.1,87v-0.3c0.2-0.1,0.4-0.1,0.5-0.2c0.1-0.1,0.1-0.2,0.1-0.4v-9.4c0-0.2,0-0.4-0.1-0.4
	c-0.1-0.1-0.2-0.1-0.5-0.2v-0.3h4.6V76c-0.2,0.1-0.4,0.1-0.5,0.2c-0.1,0.1-0.1,0.2-0.1,0.4v9.4c0,0.2,0,0.3,0.1,0.4
	c0.1,0.1,0.2,0.1,0.5,0.2V87L28.1,87L28.1,87z M47.7,84.3c0.2,0,0.4,0,0.4-0.1c0.1-0.1,0.2-0.2,0.2-0.4h0.3v3.7h-0.3
	c-0.1-0.2-0.1-0.4-0.2-0.4C48.1,87,47.9,87,47.7,87H36.3v-0.3c0.2-0.1,0.4-0.1,0.5-0.2c0.1-0.1,0.1-0.2,0.1-0.4v-9.4
	c0-0.2,0-0.4-0.1-0.4c-0.1-0.1-0.2-0.1-0.5-0.2v-0.3h4.6V76c-0.2,0.1-0.4,0.1-0.5,0.2c-0.1,0.1-0.1,0.2-0.1,0.4v7.7L47.7,84.3
	L47.7,84.3z M61,84.3c0.2,0,0.4,0,0.4-0.1c0.1-0.1,0.2-0.2,0.2-0.4H62v3.7h-0.3c-0.1-0.2-0.1-0.4-0.2-0.4C61.4,87,61.2,87,61,87
	H49.6v-0.3c0.2-0.1,0.4-0.1,0.5-0.2c0.1-0.1,0.1-0.2,0.1-0.4v-9.4c0-0.2,0-0.4-0.1-0.4c-0.1-0.1-0.2-0.1-0.5-0.2v-0.3h4.6V76
	c-0.2,0.1-0.4,0.1-0.5,0.2c-0.1,0.1-0.1,0.2-0.1,0.4v7.7L61,84.3L61,84.3z M63.9,87v-0.3c0.2-0.1,0.4-0.1,0.5-0.2
	c0.1-0.1,0.1-0.2,0.1-0.4v-9.4c0-0.2,0-0.4-0.1-0.4c-0.1-0.1-0.2-0.1-0.5-0.2v-0.3h4.6V76c-0.2,0.1-0.4,0.1-0.5,0.2
	c-0.1,0.1-0.1,0.2-0.1,0.4v9.4c0,0.2,0,0.3,0.1,0.4c0.1,0.1,0.2,0.1,0.5,0.2V87L63.9,87L63.9,87z M80.5,87.2c-2.1,0-3.9-0.6-5.3-1.7
	c-1.4-1.1-2.1-2.6-2.1-4.3c0-1.7,0.7-3.2,2.1-4.3c1.4-1.1,3.1-1.7,5.3-1.7c2.1,0,3.9,0.6,5.3,1.7c1.4,1.1,2.1,2.6,2.1,4.3
	c0,1.7-0.7,3.2-2.1,4.3C84.3,86.6,82.6,87.2,80.5,87.2L80.5,87.2z M76.8,81.2c0,1,0.3,1.8,1,2.4c0.7,0.6,1.6,0.9,2.7,0.9
	c1.1,0,2-0.3,2.7-0.9c0.7-0.6,1-1.4,1-2.4c0-1-0.3-1.8-1-2.4c-0.7-0.6-1.6-0.9-2.7-0.9c-1.1,0-2,0.3-2.7,0.9S76.8,80.2,76.8,81.2
	L76.8,81.2z M92.3,86.1c0,0.2,0,0.4,0.1,0.4c0.1,0.1,0.2,0.1,0.5,0.2V87h-4.1v-0.3c0.2-0.1,0.4-0.1,0.5-0.2s0.1-0.2,0.1-0.4v-9.4
	c0-0.2,0-0.4-0.1-0.4c-0.1-0.1-0.2-0.1-0.5-0.2v-0.3h5.3V76c-0.1,0-0.3,0.1-0.3,0.2c-0.1,0.1-0.1,0.1-0.1,0.2c0,0.1,0.1,0.2,0.3,0.4
	c0,0,0.1,0.1,0.1,0.1l5.1,5.2v-5.4c0-0.2,0-0.3-0.1-0.4c-0.1-0.1-0.2-0.1-0.5-0.2v-0.3h4.1V76c-0.2,0.1-0.4,0.1-0.5,0.2
	c-0.1,0.1-0.1,0.2-0.1,0.4v9.4c0,0.2,0,0.3,0.1,0.4c0.1,0.1,0.2,0.1,0.5,0.2V87h-4.4v-0.3c0.2,0,0.3-0.1,0.3-0.1
	c0.1-0.1,0.1-0.1,0.1-0.2c0-0.1-0.1-0.2-0.3-0.5c0,0,0,0,0,0l-6-6.2L92.3,86.1L92.3,86.1z M108.6,82.7h4l-2.1-4.9L108.6,82.7
	L108.6,82.7z M113.6,87v-0.3c0.1,0,0.3-0.1,0.3-0.1c0.1-0.1,0.1-0.1,0.1-0.2c0-0.1,0-0.1,0-0.2c0-0.1-0.1-0.2-0.1-0.3l-0.5-1.2h-5.6
	l-0.5,1.2c0,0.1-0.1,0.1-0.1,0.2c0,0.1,0,0.1,0,0.2c0,0.1,0,0.2,0.1,0.3c0.1,0.1,0.2,0.1,0.4,0.2V87h-4.1v-0.3
	c0.4-0.2,0.7-0.7,1-1.4c0-0.1,0.1-0.1,0.1-0.2l3.2-8.1c0.1-0.2,0.1-0.3,0.1-0.4c0-0.1,0.1-0.2,0.1-0.3c0-0.1,0-0.2-0.1-0.2
	c-0.1-0.1-0.1-0.1-0.3-0.1v-0.3h6V76c-0.1,0-0.2,0-0.3,0.1c-0.1,0.1-0.1,0.1-0.1,0.2c0,0,0,0.1,0.1,0.3c0,0.1,0.1,0.3,0.2,0.4l3.8,9
	c0,0,0,0,0,0c0.1,0.3,0.3,0.5,0.6,0.6V87L113.6,87C113.6,87,113.6,87,113.6,87z M119.5,87v-0.3c0.2-0.1,0.4-0.1,0.5-0.2
	c0.1-0.1,0.1-0.2,0.1-0.4v-9.4c0-0.2,0-0.4-0.1-0.4c-0.1-0.1-0.2-0.1-0.5-0.2v-0.3h4.6V76c-0.2,0.1-0.4,0.1-0.5,0.2
	c-0.1,0.1-0.1,0.2-0.1,0.4v9.4c0,0.2,0,0.3,0.1,0.4c0.1,0.1,0.2,0.1,0.5,0.2V87L119.5,87L119.5,87z M127.3,87v-0.3
	c0.2-0.1,0.4-0.1,0.5-0.2s0.1-0.2,0.1-0.4v-9.4c0-0.2,0-0.4-0.1-0.4c-0.1-0.1-0.2-0.1-0.5-0.2v-0.3h8.4c1.5,0,2.7,0.3,3.5,0.9
	c0.8,0.6,1.3,1.5,1.3,2.6c0,0.9-0.3,1.6-0.8,2.2c-0.5,0.6-1.3,1-2.3,1.3l1.8,2.6c0.3,0.5,0.6,0.8,0.8,1c0.2,0.2,0.4,0.3,0.6,0.3V87
	h-4.8l0-0.3c0.1,0,0.2-0.1,0.3-0.1c0.1-0.1,0.1-0.1,0.1-0.2c0-0.1-0.1-0.2-0.2-0.4c-0.1-0.1-0.1-0.1-0.1-0.2l-2-2.9h-2.5v3.2
	c0,0.2,0,0.3,0.1,0.4c0.1,0.1,0.2,0.1,0.5,0.2V87L127.3,87L127.3,87z M131.3,78v2.6h3c0.9,0,1.6-0.1,2-0.3c0.4-0.2,0.6-0.5,0.6-1
	c0-0.5-0.2-0.8-0.6-1c-0.4-0.2-1.1-0.3-2.2-0.3L131.3,78L131.3,78z M152.8,84.3c0.2,0,0.4,0,0.4-0.1c0.1-0.1,0.2-0.2,0.2-0.4h0.3
	v3.7h-0.3c-0.1-0.2-0.1-0.4-0.2-0.4c-0.1-0.1-0.2-0.1-0.4-0.1h-10.9v-0.3c0.2-0.1,0.4-0.1,0.5-0.2c0.1-0.1,0.1-0.2,0.1-0.4v-9.4
	c0-0.2,0-0.4-0.1-0.4c-0.1-0.1-0.2-0.1-0.5-0.2v-0.3h10.9c0.2,0,0.4,0,0.4-0.1c0.1-0.1,0.1-0.2,0.2-0.4h0.3v3.7h-0.3
	c-0.1-0.2-0.1-0.4-0.2-0.4c-0.1-0.1-0.2-0.1-0.4-0.1h-6.9V80h4.2c0.2,0,0.4,0,0.5-0.1c0.1-0.1,0.2-0.2,0.2-0.4h0.3v3.5h-0.3
	c-0.1-0.2-0.1-0.4-0.2-0.4c-0.1-0.1-0.2-0.1-0.5-0.1h-4.2v1.9L152.8,84.3L152.8,84.3L152.8,84.3L152.8,84.3z M21.2,84.2
	c0.2,0,0.3,0,0.4-0.1c0.1-0.1,0.1-0.2,0.2-0.5h0.3V87l-11.2,0v-4.4l5.2-2.4l6.2,0.1l-7.9,4H21.2L21.2,84.2z M12,78.5
	c-0.2,0-0.3,0-0.4,0.1c-0.1,0.1-0.1,0.2-0.2,0.5h-0.3v-3.3l11.2,0v4.4l-5.2,2.4l-6.2-0.1l7.9-4H12L12,78.5z"/>
</svg>
